<svg width="29" height="29" viewBox="0 0 29 29" fill="none" xmlns="http://www.w3.org/2000/svg">
<path d="M0 14.5873C0.00168708 21.7643 5.1885 27.8752 12.2332 29V18.8036H8.5547V14.5873H12.2376V11.3776C12.0729 9.85675 12.5892 8.341 13.6464 7.24147C14.7036 6.14193 16.1921 5.57257 17.7082 5.68781C18.7965 5.70549 19.882 5.80301 20.9561 5.9796V9.5671H19.1234C18.4924 9.48394 17.8581 9.69362 17.3991 10.1371C16.94 10.5805 16.706 11.2097 16.7629 11.8474V14.5873H20.7807L20.1383 18.805H16.7629V29C24.3816 27.7885 29.7241 20.7874 28.92 13.0686C28.1159 5.34988 21.4466 -0.384346 13.7438 0.0201401C6.04101 0.424627 0.00122445 6.82622 0 14.5873Z" fill="#231F20"/>
</svg>
