<svg width="29" height="29" viewBox="0 0 29 29" fill="none" xmlns="http://www.w3.org/2000/svg">
<path d="M14.4919 29C10.5308 29 10.0639 28.9791 8.51805 28.9116C7.31259 28.872 6.12274 28.6273 4.99972 28.188C3.05669 27.4329 1.52027 25.8982 0.764853 23.9576C0.341859 22.8322 0.11371 21.6431 0.0901721 20.4412C0 18.9008 0 18.3959 0 14.4711C0 10.5044 0.0209328 10.0413 0.0901721 8.50577C0.114225 7.30551 0.342366 6.11805 0.764853 4.99412C1.51945 3.05103 3.05837 1.51491 5.00455 0.762142C6.12952 0.337983 7.31899 0.109569 8.52127 0.0868263C10.059 0 10.5646 0 14.4919 0C18.4853 0 18.9442 0.0209026 20.4659 0.0868263C21.6712 0.109766 22.8639 0.338156 23.9922 0.762142C25.9379 1.51577 27.4765 3.05159 28.2319 4.99412C28.6621 6.13443 28.8914 7.34045 28.9098 8.55883C29 10.0992 29 10.6025 29 14.5257C29 18.449 28.9775 18.9635 28.9098 20.4862C28.8859 21.6892 28.6572 22.8794 28.2335 24.0059C27.4762 25.9477 25.9375 27.4831 23.9922 28.2379C22.8655 28.6594 21.6753 28.8872 20.4723 28.9116C18.9345 29 18.4305 29 14.4919 29ZM14.4372 2.5453C10.4986 2.5453 10.0896 2.56459 8.55186 2.63373C7.63401 2.64587 6.72504 2.81501 5.86441 3.13379C4.59355 3.61939 3.58793 4.61947 3.09645 5.8865C2.77475 6.75525 2.60534 7.67284 2.59567 8.59902C2.51033 10.1571 2.51033 10.5655 2.51033 14.4711C2.51033 18.33 2.52482 18.7979 2.59567 20.3463C2.61008 21.2631 2.77939 22.1709 3.09645 23.0315C3.58865 24.2977 4.5941 25.297 5.86441 25.7826C6.72445 26.1035 7.6338 26.2727 8.55186 26.2827C10.1105 26.3727 10.5212 26.3727 14.4372 26.3727C18.3871 26.3727 18.7961 26.3534 20.3209 26.2827C21.2394 26.2715 22.1491 26.1023 23.01 25.7826C24.2732 25.2928 25.2722 24.2958 25.7635 23.0347C26.0845 22.1652 26.2539 21.2472 26.2642 20.3206H26.282C26.3512 18.7834 26.3512 18.3734 26.3512 14.4453C26.3512 10.5172 26.3335 10.104 26.2642 8.56847C26.2498 7.6527 26.0805 6.74594 25.7635 5.8865C25.2734 4.62362 24.2741 3.62467 23.01 3.13379C22.1493 2.8134 21.2395 2.64422 20.3209 2.63373C18.7639 2.5453 18.3565 2.5453 14.4372 2.5453ZM14.4919 21.8979C11.4808 21.8999 8.76508 20.0902 7.61127 17.3129C6.45746 14.5357 7.09285 11.3378 9.22112 9.21077C11.3494 7.08373 14.5513 6.44649 17.3336 7.59623C20.1159 8.74597 21.9305 11.4562 21.9311 14.463C21.9267 18.5649 18.5997 21.89 14.4919 21.8979ZM14.4919 9.63612C11.8241 9.63612 9.6613 11.7958 9.6613 14.4598C9.6613 17.1238 11.8241 19.2835 14.4919 19.2835C17.1598 19.2835 19.3226 17.1238 19.3226 14.4598C19.3164 11.7983 17.1573 9.6423 14.4919 9.63612ZM22.221 8.48969C21.2636 8.48614 20.4898 7.7092 20.4916 6.75317C20.4934 5.79715 21.27 5.02308 22.2274 5.02308C23.1848 5.02308 23.9615 5.79714 23.9632 6.75316C23.9637 7.2144 23.7801 7.65683 23.4532 7.98268C23.1263 8.30853 22.6829 8.49097 22.221 8.48969Z" fill="#231F20"/>
</svg>
