<svg width="36" height="29" viewBox="0 0 36 29" fill="none" xmlns="http://www.w3.org/2000/svg">
<path d="M31.7594 4.57269C33.3022 3.65803 34.4566 2.2178 35.007 0.520896C33.5573 1.37393 31.9712 1.97483 30.3172 2.29761C28.0241 -0.10799 24.391 -0.693404 21.4479 0.868483C18.5047 2.43037 16.9803 5.75288 17.7264 8.97948C11.7882 8.68383 6.2558 5.90209 2.50578 1.32648C0.548725 4.6741 1.54882 8.95351 4.79128 11.1061C3.61878 11.0687 2.47227 10.7539 1.44737 10.1879C1.44737 10.2186 1.44737 10.2493 1.44737 10.28C1.44804 13.7671 3.92626 16.7709 7.37279 17.462C6.28522 17.7554 5.14444 17.7986 4.03748 17.5883C5.00675 20.5704 7.77817 22.6134 10.937 22.6743C8.32077 24.7107 5.08983 25.815 1.76403 25.8096C1.17454 25.8105 0.585504 25.7768 0 25.7089C3.37728 27.8612 7.30803 29.0035 11.3225 28.9995C16.9076 29.0376 22.275 26.854 26.2242 22.9372C30.1734 19.0204 32.3748 13.6973 32.336 8.15854C32.336 7.84109 32.3285 7.52534 32.3136 7.21131C33.76 6.17464 35.0084 4.8904 36 3.41894C34.6525 4.01128 33.2231 4.40018 31.7594 4.57269Z" fill="#231F20"/>
</svg>
