<svg width="127" height="128" viewBox="0 0 127 128" fill="none" xmlns="http://www.w3.org/2000/svg">
<path d="M85.9552 70.0853C75.8489 59.9815 65.8457 49.9292 56.0488 40.1347C65.5364 30.4433 75.127 20.6488 84.563 11.009C94.7209 21.1643 104.724 31.165 114.573 41.0111C105.188 50.5994 95.5459 60.3423 85.9552 70.0853Z" fill="#AD974F"/>
<path d="M123.803 127.048C122.978 127.048 122.41 127.048 121.843 127.048C96.3711 127.048 70.9507 127.048 45.4787 127.048C43.4162 127.048 43.4162 127.048 43.4162 124.883C43.4162 122.254 43.3646 119.625 43.4678 117.047C43.5193 116.223 43.9834 115.398 44.4475 114.676C44.9115 113.954 45.685 113.49 46.2006 112.82C47.0772 111.789 48.1084 111.068 49.5522 111.274C50.4803 111.428 50.8412 110.81 50.6866 109.985C50.1709 107.098 52.3881 105.706 53.935 103.902C54.1928 103.644 54.76 103.593 55.1725 103.593C74.1476 103.593 93.0711 103.593 112.046 103.593C112.613 103.593 113.232 104.005 113.696 104.366C114.16 104.675 114.418 105.191 114.831 105.552C116.12 106.686 116.79 108.026 116.481 109.779C116.274 110.913 116.79 111.377 117.873 111.222C119.11 111.068 119.832 111.738 120.76 112.459C123.184 114.315 124.06 116.583 123.751 119.625C123.596 122.048 123.803 124.471 123.803 127.048Z" fill="#AD974F"/>
<path d="M0 114.367C0 110.758 1.18594 107.923 3.66096 105.758C22.9454 88.7464 42.2299 71.7864 61.5144 54.8264C62.2878 54.1563 62.7519 54.0532 63.5253 54.8264C65.8972 57.3008 68.3206 59.7237 70.7957 62.0435C71.8269 63.0229 71.5691 63.59 70.7441 64.4663C62.1331 74.0546 53.5737 83.6429 45.0143 93.2828C36.7642 102.562 28.4626 111.841 20.2126 121.068C16.4485 125.244 11.4469 126.584 6.75472 124.264C2.57814 122.254 0.154688 118.852 0 114.367Z" fill="#AD974F"/>
<path d="M50.2744 37.0933C46.201 36.8355 43.8807 32.8146 46.0463 29.2576C47.6963 26.5255 49.6041 23.8964 51.6151 21.422C57.8542 13.6895 64.8151 6.78184 73.2714 1.52374C74.3027 0.905143 75.437 0.389643 76.5714 0.131892C78.6855 -0.383608 80.6964 0.647393 81.7277 2.60629C82.7074 4.46209 82.4496 6.52409 80.9543 8.01904C71.7761 17.1949 62.5979 26.3193 53.3166 35.4436C52.5948 36.2169 51.3057 36.5262 50.2744 37.0933Z" fill="#AD974F"/>
<path d="M94.4105 80.6014C91.6776 80.4468 90.2339 79.4158 89.4089 77.56C88.5839 75.6526 88.9448 73.8999 90.337 72.405C92.3995 70.2914 94.5651 68.2294 96.6276 66.1159C103.589 59.2082 110.498 52.2489 117.459 45.3412C119.882 42.9184 122.873 43.0215 124.987 45.4443C126.328 47.0424 126.534 49.259 125.09 51.4757C123.337 54.2078 121.532 56.94 119.47 59.4659C113.231 67.0438 105.961 73.5391 97.762 78.9003C96.5761 79.8282 95.1839 80.2406 94.4105 80.6014Z" fill="#AD974F"/>
</svg>
