<svg width="148" height="135" viewBox="0 0 148 135" fill="none" xmlns="http://www.w3.org/2000/svg">
<path d="M61.5252 134.935C59.0954 134.871 56.7312 134.614 54.3014 134.229C50.9522 133.715 47.603 132.945 44.3851 131.917C32.433 128.063 22.451 121.384 14.5048 111.75C6.62425 102.181 2.09295 91.2629 0.779527 79.0602C0.648185 77.9042 0.582514 76.7482 0.451172 75.5279C0.451172 73.7296 0.451172 71.9956 0.451172 70.1973C0.582514 68.977 0.648185 67.6925 0.779527 66.4723C2.02728 54.9119 6.23022 44.4433 13.454 35.195C18.5107 28.7083 24.6838 23.3777 31.9076 19.2031C39.6568 14.9001 47.997 12.1384 56.9283 11.2393C65.7282 10.2759 74.3968 11.1108 82.8683 13.6798C92.2593 16.5699 100.468 21.3225 107.626 27.9376C107.758 28.0661 107.823 28.1303 107.955 28.323C105.065 30.7635 102.241 33.1398 99.3518 35.5161C86.4146 24.4053 71.4416 19.8453 54.4328 22.7997C41.2986 25.0475 30.6598 31.5984 22.5166 41.9385C6.75559 61.9765 8.3317 90.4922 26.8509 108.796C45.4358 127.1 74.3311 128.834 94.8204 113.934C106.05 105.713 112.946 94.7952 115.244 81.2439C117.543 67.6925 114.522 55.2972 106.707 43.8653C109.531 41.489 112.42 39.0484 115.31 36.6079C119.775 42.645 123.059 49.2601 125.029 56.389C128.181 67.5641 128.116 78.8033 124.898 89.9784C121.155 102.823 113.799 113.42 103.095 121.705C98.7607 125.045 94.0324 127.807 89.0414 129.99C83.4594 132.366 77.4833 133.908 71.3759 134.614C68.0923 135 64.8088 135.064 61.5252 134.935Z" fill="#AD974F"/>
<path d="M90.2237 43.223C87.5968 45.4709 84.97 47.6545 82.3431 49.9024C74.5939 44.2506 65.991 42.3881 56.6001 44.636C49.5733 46.3058 43.8599 50.2235 39.657 55.9395C31.0541 67.6283 32.4988 83.6202 43.0719 93.8319C53.4479 103.851 69.8 105.007 81.6864 96.4651C93.7042 87.7948 97.6445 71.4818 89.764 58.1231C92.3908 55.9395 95.0176 53.6916 97.6445 51.508C106.576 64.0317 107.889 85.9965 92.0624 101.089C75.973 116.439 50.624 116.054 34.9943 100.254C19.693 84.8404 19.9556 59.9856 35.9137 44.7644C51.6091 29.6717 75.6447 30.5066 90.2237 43.223Z" fill="#AD974F"/>
<path d="M130.283 0C130.48 1.28449 130.677 2.50475 130.808 3.66079C131.334 7.32158 131.859 10.9824 132.385 14.7074C132.45 15.157 132.647 15.3496 133.107 15.4781C137.704 16.891 142.301 18.304 146.898 19.7169C147.095 19.7811 147.292 19.8453 147.62 19.9738C146.569 20.6803 145.519 21.3867 144.534 22.029C137.901 26.5247 131.268 30.9562 124.635 35.4519C124.241 35.7088 123.979 35.7088 123.65 35.5161C122.074 34.6812 120.498 33.8463 118.922 33.0113C118.331 32.6902 117.74 32.4333 117.083 32.1764C116.952 32.1122 116.689 32.2407 116.558 32.3049C112.683 35.5161 108.743 38.7273 104.868 41.9385C97.7759 47.8472 90.6834 53.6916 83.5909 59.6003C77.5492 64.6097 71.4418 69.6193 65.4001 74.693C64.5463 75.3995 63.5613 75.5921 62.4449 75.2068C61.3941 74.8214 60.7374 73.9865 60.6061 72.8947C60.4747 71.9313 60.8688 71.0322 61.5911 70.3899C64.7434 67.7567 67.9612 65.1236 71.1134 62.4903C78.2716 56.5817 85.3641 50.6731 92.5222 44.7644C99.2206 39.2411 105.919 33.6536 112.618 28.1303C112.946 27.8092 113.077 27.6165 112.88 27.1669C112.158 25.0475 111.567 22.9923 110.844 20.8729C110.713 20.5518 110.779 20.3591 110.976 20.1022C117.28 13.4871 123.585 6.87201 129.889 0.256898C130.02 0.192673 130.152 0.128449 130.283 0Z" fill="#AD974F"/>
<path d="M74.7912 56.1321C73.4121 57.2882 72.0987 58.38 70.7853 59.4718C69.8002 60.3067 68.7495 61.1416 67.7644 62.0408C67.5017 62.2977 67.239 62.3619 66.845 62.2977C62.248 61.2058 58.2421 62.2977 55.2212 65.8942C52.2004 69.4266 51.7407 73.4085 53.6451 77.6473C55.6809 82.0788 60.4749 84.5835 65.5316 83.8771C70.2599 83.2348 74.2658 79.4456 74.9882 74.7572C75.1852 73.5369 74.9882 72.2524 74.9882 70.968C74.9882 70.7753 74.9882 70.5184 75.1196 70.3899C77.4837 68.399 79.7822 66.408 82.1464 64.4171C85.2986 70.0046 85.4956 80.3447 77.6807 87.4736C69.8659 94.6668 57.7167 94.6025 49.8362 87.3452C42.087 80.2805 41.299 68.3348 48.0631 60.3067C55.2212 51.9575 66.9107 51.0584 74.7912 56.1321Z" fill="#AD974F"/>
</svg>
