<svg width="117" height="138" viewBox="0 0 117 138" fill="none" xmlns="http://www.w3.org/2000/svg">
<path d="M112.78 57.862C110.336 60.6048 107.843 63.2497 104.519 65.1108C99.2392 68.0496 93.6663 68.8822 87.8001 67.7557C86.6269 67.5108 86.1869 67.4128 86.2358 68.9312C86.6269 82.0575 82.325 93.3226 72.8413 102.482C71.9125 103.363 71.717 104.098 72.1081 105.322C72.6458 106.792 72.988 108.359 73.3791 109.926C73.819 111.69 73.3302 112.914 71.4726 113.404C60.8156 116.245 50.1587 119.085 39.5018 121.975C37.8397 122.416 36.4709 121.779 36.3732 120.212C35.9821 114.922 32.9512 112.963 28.1605 111.592C21.6588 109.779 16.2814 105.763 11.6863 100.816C11.2463 100.326 10.7574 99.9347 10.2686 99.4939C5.33121 93.1266 1.71372 86.1717 0.540478 78.1392C-1.26827 66.0414 1.46929 55.1192 8.65538 45.2745C9.5842 44.001 10.5619 42.8256 11.5396 41.6011C11.8818 41.3072 12.224 41.0623 12.5173 40.7685C24.6408 29.1115 38.8174 25.2912 55.0472 29.6013C60.229 30.9727 64.8731 33.5686 69.3705 36.7522C71.8148 29.2585 76.801 24.3116 83.5472 21.03C89.1689 19.1199 94.7907 18.728 100.51 20.6872C114.931 25.683 121.286 42.1399 113.905 55.56C113.514 56.2947 113.171 57.0783 112.78 57.862ZM50.5009 114.09C53.0429 113.649 55.4872 112.914 57.8825 112.179C59.0558 111.836 60.229 111.543 61.4511 111.2C63.0644 110.808 64.6287 110.318 66.2908 110.024C68.0506 109.73 68.8817 109.045 67.9529 107.184C66.2419 103.608 66.9752 100.669 70.3482 98.4653C70.5926 98.3184 70.7882 98.0735 70.9837 97.8776C79.0986 89.1104 82.5206 78.7269 81.5918 66.8741C81.494 65.9435 81.2007 65.2088 80.2719 64.5721C72.4503 59.6742 68.4906 52.5233 68.4417 43.2664C68.4417 42.0909 68.0017 41.4542 67.1707 40.7685C49.9632 26.9075 23.712 30.7768 11.3441 49.0458C0.687133 64.768 2.39811 84.8003 15.6459 98.3674C21.2188 104.049 27.9649 107.575 35.7377 109.143C37.2042 109.437 38.2308 110.024 38.7196 111.592C39.3063 113.404 38.9152 116.147 40.6262 116.734C42.1416 117.273 44.2925 115.951 46.199 115.412C46.5412 115.314 46.8834 115.118 47.1767 115.02C48.3011 114.824 49.4254 114.579 50.5009 114.09ZM92.7375 63.6415C103.639 63.6415 112.536 54.6784 112.487 43.7072C112.438 32.7849 103.492 23.9198 92.542 23.9688C81.7384 24.0177 72.8902 32.9319 72.8902 43.8051C72.8902 54.7274 81.8362 63.6415 92.7375 63.6415Z" fill="#AD974F"/>
<path d="M39.2567 124.375C39.99 123.738 40.8699 123.395 41.7499 123.151C51.2824 120.604 60.815 118.057 70.3476 115.51C72.0097 115.069 73.4762 115.069 73.9651 117.028C74.405 118.889 72.9874 119.526 71.5208 119.918C63.9436 121.975 56.3665 123.983 48.7404 126.04C48.3982 126.138 48.1049 126.285 47.7627 126.432C46.1006 126.824 44.4385 127.216 42.7765 127.608C39.8434 128.342 38.8168 127.412 39.2567 124.375Z" fill="#AD974F"/>
<path d="M49.1317 127.755C55.8289 125.991 62.4773 124.228 69.1745 122.465C70.3477 122.122 71.4721 121.975 72.352 123.004C73.232 123.983 72.9386 125.012 72.352 125.991C69.1256 127.51 65.6548 128.048 62.2817 128.979C57.2466 130.448 52.1625 131.673 47.0785 133.044C45.5142 133.485 44.0476 133.338 43.6077 131.575C43.1677 129.763 44.4387 129.028 46.003 128.636C47.0785 128.391 48.1051 128.048 49.1317 127.755Z" fill="#AD974F"/>
<path d="M52.8475 7.26705C52.1632 9.56905 51.5276 11.92 50.8433 14.222C50.4033 15.8383 49.5722 17.2097 47.6657 16.7689C45.6614 16.2791 45.3681 14.8098 45.9059 12.9486C46.3458 11.3813 46.6391 9.81394 46.9813 8.24662C47.5191 6.48339 48.0079 4.72016 48.5457 2.95693C49.0345 1.38961 49.9633 0.361057 51.7721 0.801865C53.483 1.24267 53.923 2.51612 53.483 4.18139C53.2386 5.20995 53.0431 6.2385 52.8475 7.26705Z" fill="#AD974F"/>
<path d="M28.8938 14.1241C28.6494 17.3077 27.5739 18.0424 24.5919 17.0138C22.7832 12.9975 22.0499 8.68743 20.9745 4.42628C20.5834 3.0059 21.2189 1.78143 22.6854 1.38961C24.2986 0.948798 25.3741 1.83041 25.8141 3.29977C26.9384 6.97317 27.8672 10.5486 28.8938 14.1241Z" fill="#AD974F"/>
<path d="M5.62396 21.8137C6.55277 21.8627 7.13939 22.3035 7.67712 22.8423C9.82806 24.9973 11.979 27.1524 14.1299 29.3074C15.2054 30.385 15.792 31.6094 14.521 32.8829C13.2989 34.1074 12.0279 33.6176 10.9524 32.4911C8.75259 30.287 6.55277 28.083 4.35295 25.8789C3.5219 25.0953 3.27748 24.1157 3.71744 23.0872C4.05964 22.2545 4.8418 21.8627 5.62396 21.8137Z" fill="#AD974F"/>
<path d="M56.6114 137.159C54.9982 137.11 54.1672 136.62 53.9228 135.493C53.6783 134.416 54.0205 133.387 55.096 132.995C57.8824 132.016 60.6689 131.183 63.602 130.742C64.6775 130.546 65.5085 131.281 65.8018 132.408C66.0951 133.534 65.704 134.514 64.6286 134.856C61.8421 135.738 59.0068 136.473 56.6114 137.159Z" fill="#AD974F"/>
<path d="M47.1279 114.971C45.1236 108.996 43.1194 103.069 41.164 97.0939C40.6262 95.4287 39.9418 94.694 38.0353 94.7429C34.5156 94.8409 31.1425 94.0572 28.1606 92.0491C25.4719 90.2369 23.712 87.739 24.1031 84.4084C24.4453 81.1759 26.1563 78.6779 29.2849 77.5025C32.658 76.229 36.6177 77.6984 38.4753 80.882C40.0396 83.5758 41.2129 86.4656 42.2394 89.4043C42.6794 90.7267 43.266 91.0695 44.6348 90.6777C46.8835 89.992 49.1811 89.3553 51.4787 88.8165C52.9452 88.4737 53.1408 87.69 52.8964 86.2696C52.4075 83.4779 52.0653 80.6861 51.9187 77.8943C51.7231 74.4658 53.2874 71.9189 56.3672 70.3516C59.3981 68.8822 62.1845 69.5679 64.6287 71.5271C67.3663 73.7311 67.9529 76.7188 67.073 79.9514C65.8509 84.2615 62.6734 87.0043 59.007 89.1594C57.6871 89.943 57.296 90.6777 57.6382 92.245C59.007 98.5143 60.1802 104.833 61.4512 111.151C60.278 111.494 59.1047 111.788 57.8826 112.13C56.6116 105.861 55.3406 99.5429 54.1185 93.2246C53.8741 92.0001 53.2874 91.8532 52.3097 92.294C50.3543 93.2246 48.3012 93.8613 46.1502 93.9593C44.5859 94.0572 44.146 94.645 44.7815 96.3103C46.9324 102.139 48.8389 108.016 50.5499 113.992C49.4255 114.579 48.3012 114.824 47.1279 114.971ZM59.5447 73.2413C57.6871 73.2413 55.7806 74.7597 55.6339 76.6208C55.3895 79.5106 55.8783 82.3513 56.3672 85.1921C56.465 85.7799 56.6116 86.4656 57.4427 85.9268C60.4246 84.0656 63.0644 81.8616 63.7977 78.1392C64.2866 75.6903 62.0867 73.2903 59.5447 73.2413ZM37.2532 91.0695C39.013 91.2655 39.1597 91.1675 38.182 88.9635C37.3021 86.9064 36.3244 84.8982 35.3955 82.8901C34.8578 81.7636 33.929 81.1269 32.7558 80.882C30.8492 80.4902 29.3338 81.1759 28.3561 82.8411C27.3784 84.6044 27.5251 86.3676 28.8938 87.837C30.9959 90.139 33.7823 90.7757 37.2532 91.0695Z" fill="#AD974F"/>
<path d="M92.8351 55.658C86.9689 55.56 82.3737 52.5723 78.2674 48.4581C78.1208 48.3112 77.9741 48.1153 77.8274 47.9683C74.4055 44.148 73.4278 44.2949 77.9252 39.2991C81.2983 35.5767 85.258 32.736 90.3909 32.0992C97.1859 31.2666 102.319 34.5482 106.914 39.0052C107.158 39.2501 107.403 39.544 107.647 39.7889C111.265 43.8051 111.314 44.148 107.598 48.0663C103.688 52.3764 99.0435 55.4131 92.8351 55.658ZM99.4835 48.752C101.879 48.1642 103.15 46.1071 104.812 44.5398C105.105 44.2459 105.203 43.8541 104.91 43.5602C103.297 41.895 101.928 39.8379 99.4835 39.2011C97.3814 36.3604 89.8531 35.1359 85.9912 38.6624C83.6936 39.3971 82.3737 41.3562 80.7605 42.9235C80.125 43.5113 80.3695 44.05 80.9072 44.5888C82.4226 46.1561 83.9381 47.7724 85.9912 48.752C87.1156 49.8295 88.5821 50.4173 89.9998 50.6622C93.3729 51.2499 96.697 51.3479 99.4835 48.752Z" fill="#AD974F"/>
<path d="M85.9909 38.7113C89.8528 35.1849 97.3811 36.4093 99.4831 39.2501C101.585 42.4337 101.096 45.5683 99.4831 48.752C96.7455 51.3968 93.3725 51.2499 89.9994 50.6621C88.5329 50.4172 87.1152 49.8785 85.9909 48.752C84.0355 45.4214 84.231 42.0419 85.9909 38.7113ZM92.9325 39.2011C93.0792 42.8255 92.3459 44.099 89.755 44.001C87.4085 43.9031 87.9463 44.9316 88.6306 46.1561C89.7061 48.1152 92.1015 49.0458 94.1546 48.2622C96.3056 47.4785 97.4788 45.8622 97.3811 43.5112C97.2833 41.1113 95.8656 39.7399 92.9325 39.2011ZM89.8039 39.5929C89.0217 39.7399 88.5329 40.1807 88.5818 41.0623C88.6306 41.846 89.2173 42.2378 89.9017 42.2378C90.7327 42.2378 91.2704 41.6501 91.1727 40.7684C91.0749 40.0827 90.6349 39.5929 89.8039 39.5929Z" fill="#AD974F"/>
</svg>
