<svg width="138" height="150" viewBox="0 0 138 150" fill="none" xmlns="http://www.w3.org/2000/svg">
<path d="M51.4531 23.6137C55.6388 24.1066 59.475 25.6986 63.1722 27.7205C70.4248 31.7017 76.6662 37.015 82.4133 42.8723C90.7155 51.3822 97.9061 60.7225 103.509 71.2421C106.525 76.842 108.874 82.7236 109.802 89.062C110.205 92.1024 110.217 95.1059 109.249 98.0663C107.681 102.693 103.426 105.54 98.2237 105.395C93.4646 105.241 89.1499 103.506 85.0762 101.301C78.0537 97.4891 71.9937 92.3405 66.3745 86.6922C57.833 78.1105 50.4123 68.6009 44.7301 57.8769C41.6354 52.0727 39.1582 45.9821 38.3018 39.4044C37.8855 36.5104 37.9571 33.6624 38.9112 30.8483C40.4165 26.3636 44.4271 23.493 49.1513 23.4952C49.9363 23.52 50.668 23.5889 51.4531 23.6137ZM49.5612 38.9888C49.6128 39.4859 49.5696 40.4662 49.682 41.3628C50.2226 45.5482 51.8335 49.3422 53.6975 53.0617C58.8496 63.1451 65.6425 72.0049 73.7606 79.8576C78.452 84.3849 83.3661 88.638 89.2427 91.5543C91.5455 92.7065 93.9293 93.5218 96.5514 93.3751C97.4432 93.3115 98.1049 93.0785 98.1526 92.0494C98.2372 90.63 98.5215 89.1802 98.3575 87.7866C97.9936 83.8148 96.4665 80.1762 94.7304 76.6657C89.6455 66.3918 82.7689 57.3764 74.567 49.3682C70.1499 45.0635 65.5101 41.0333 60.1304 38.0653C57.9297 36.8735 55.6757 35.7259 53.1788 35.5891C50.1453 35.4016 50.0524 35.3437 49.5612 38.9888Z" fill="#AD974F"/>
<path d="M84.559 106.273C81.3745 106.12 78.2435 105.924 75.0499 105.869C66.7419 105.775 59.0425 108.101 52.2977 112.83C47.4515 116.213 42.8565 120.062 38.3149 123.867C34.9964 126.704 31.362 127.149 27.4265 126.089C21.6162 124.557 17.0188 121.121 13.1033 116.716C9.01104 112.098 6.05169 106.946 4.95871 100.789C4.7368 99.4885 4.62164 98.0995 4.69699 96.7777C4.80991 93.4906 6.05215 90.753 8.66758 88.5877C12.9865 85.0571 17.3007 81.5753 21.3499 77.7732C28.3182 71.1946 32.3376 63.0092 33.7219 53.5418C34.0448 51.1604 34.3234 48.7257 34.5975 46.3398C34.6251 46.0471 34.6481 45.8031 34.7382 45.3687C35.3698 47.5446 35.8688 49.5604 36.6208 51.5017C37.7338 54.3136 38.9976 57.0906 40.164 59.8584C40.4107 60.3738 40.5414 61.0752 40.3933 61.6027C38.9526 68.0131 36.3825 73.8742 32.3509 79.0561C31.9055 79.6047 31.7574 80.1322 31.8882 80.8336C32.5917 85.3789 34.6324 89.3119 37.3929 92.9189C40.0861 96.7166 43.3407 99.7796 47.4769 101.843C48.274 102.262 49.0756 102.633 49.8911 102.858C50.4185 103.006 51.1151 102.924 51.6305 102.677C57.6153 99.7467 63.9545 98.2768 70.5782 97.9659C70.9242 97.9493 71.3586 98.0394 71.6329 98.2621C75.5704 101.39 79.7444 104.096 84.3243 106.152C84.4172 106.21 84.4614 106.263 84.559 106.273Z" fill="#AD974F"/>
<path d="M41.5676 127.471C41.9274 127.308 42.2781 127.242 42.545 127.022C45.4227 124.684 48.3492 122.351 51.1385 119.907C53.661 117.684 56.3364 117.493 59.3038 118.905C62.2223 120.312 65.1896 121.723 68.1081 123.13C69.2862 123.684 70.4615 123.746 71.7132 123.519C73.1645 123.262 74.6785 122.864 76.116 122.753C79.5415 122.436 81.9843 124.192 83.9586 126.741C84.9702 128.017 84.6326 129.511 83.728 130.755C83.162 131.538 82.4544 132.259 81.7513 132.931C78.5745 135.831 75.3489 138.726 72.2163 141.68C69.5687 144.186 66.573 144.642 63.2504 143.345C59.9279 142.047 57.2292 139.874 54.5398 137.602C51.8899 135.433 49.2981 133.171 46.6482 131.001C45.1884 129.781 43.5152 128.737 41.5676 127.471Z" fill="#AD974F"/>
<path d="M116.797 33.1185C116.668 34.4846 116.151 35.2726 115.355 35.8866C111.019 39.0711 106.684 42.2555 102.348 45.44C100.868 46.531 99.0279 46.2099 97.8746 44.8707C96.6329 43.4248 96.6751 41.4108 98.1346 40.0225C99.8702 38.3157 101.699 36.6669 103.527 35.0181C105.579 33.095 107.63 31.1718 109.725 29.3021C111.501 27.6975 113.554 27.8417 115.105 29.6614C115.935 30.7732 116.97 31.8059 116.797 33.1185Z" fill="#AD974F"/>
<path d="M91.1126 12.1915C90.8623 12.7585 90.6516 13.4277 90.3083 13.9368C87.2955 18.2303 84.336 22.4796 81.279 26.7197C80.0358 28.4237 78.0782 28.8299 76.4491 27.8396C74.8688 26.8539 74.4582 24.9449 75.4225 23.067C75.7842 22.3628 76.1992 21.6144 76.5608 20.9102C78.6497 17.0218 80.7827 13.1868 82.8715 9.29839C83.9473 7.28332 86.0162 6.73999 87.9241 7.90419C88.5307 8.25667 89.128 8.70672 89.6812 9.10339C90.7829 9.94551 91.13 10.9626 91.1126 12.1915Z" fill="#AD974F"/>
<path d="M132.522 62.6065C132.166 64.2956 131.568 65.4205 130.147 65.8772C125.018 67.5596 119.943 69.1977 114.818 70.8312C112.94 71.4417 111.151 70.584 110.478 68.8471C109.849 67.1636 110.57 65.2628 112.369 64.4479C116.229 62.6461 120.086 60.893 123.942 59.14C124.87 58.6861 125.848 58.2367 126.772 57.8316C128.771 56.9864 130.622 57.7023 131.467 59.7015C131.912 60.7278 132.201 61.8379 132.522 62.6065Z" fill="#AD974F"/>
<path d="M77.2865 76.3999C71.879 71.116 67.3118 65.2714 62.9672 59.1525C65.5367 57.4751 68.2351 57.0403 71.0533 57.9458C75.4978 59.349 79.6628 64.7619 79.9623 69.4168C80.1043 72.088 79.1031 74.3562 77.2865 76.3999Z" fill="#AD974F"/>
</svg>
