<svg width="163" height="137" viewBox="0 0 163 137" fill="none" xmlns="http://www.w3.org/2000/svg">
<path d="M40.8418 53.2708C42.2896 52.546 43.6817 51.7097 45.1295 51.2079C51.8115 48.7547 58.8277 47.8069 65.8995 47.2494C77.5931 46.3016 89.2309 46.2458 100.869 47.9184C106.047 48.6432 111.17 50.0371 116.293 51.3194C117.741 51.6539 119.022 52.6575 120.525 53.438C119.133 55.4451 117.351 56.2257 115.514 56.616C110.391 57.731 105.212 59.0691 99.9779 59.5151C91.2355 60.2399 82.4932 60.6302 73.7509 60.5744C64.4517 60.5187 55.1525 59.4594 46.1875 56.5602C44.2942 55.9469 42.568 54.9434 40.7305 54.1628C40.8418 53.884 40.8418 53.5495 40.8418 53.2708Z" fill="#AD974F"/>
<path d="M141.853 88.7856C142.744 88.7856 143.579 88.7856 144.47 88.7856C149.314 88.7856 154.159 88.7856 158.948 88.7856C161.064 88.7856 162.289 89.8449 162.233 91.5175C162.177 93.1901 161.119 94.0264 158.948 94.0264C153.825 94.0264 148.702 94.0264 143.579 94.0264C142.966 94.0264 142.41 94.0264 141.574 94.4167C142.855 95.6433 144.136 96.8699 145.361 98.0964C146.753 99.546 146.864 100.884 145.751 102.055C144.637 103.226 143.133 103.114 141.741 101.776C138.957 98.9885 136.173 96.2008 133.389 93.4131C131.997 91.9636 131.997 90.737 133.389 89.2874C136.173 86.444 139.013 83.6006 141.853 80.8129C143.133 79.5306 144.637 79.4748 145.695 80.5899C146.809 81.7049 146.753 83.1545 145.472 84.4369C144.247 85.7192 142.911 86.9458 141.63 88.2281C141.741 88.5068 141.797 88.6184 141.853 88.7856Z" fill="#AD974F"/>
<path d="M34.6054 33.1996C34.6054 30.9137 34.6054 29.0738 34.6054 27.234C34.6611 25.3941 35.6077 24.3905 37.2226 24.3905C38.7817 24.3905 39.784 25.3383 39.784 27.1224C39.8397 31.2482 39.8397 35.3182 39.784 39.4439C39.784 41.3953 38.8931 42.1758 36.9442 42.1758C32.8792 42.2316 28.87 42.2316 24.8051 42.1758C22.9676 42.1758 22.0209 41.228 22.0766 39.4997C22.1323 37.8828 22.9676 37.0465 24.8051 36.9908C26.6984 36.935 28.5916 36.9908 30.8746 36.9908C30.2064 36.266 29.8166 35.8757 29.4269 35.4854C25.4733 31.527 21.4641 27.5127 17.5106 23.5542C16.0628 22.1046 15.8957 20.5993 17.0651 19.4285C18.2901 18.2577 19.6822 18.3692 21.1857 19.8745C25.1949 23.833 29.1484 27.8472 33.102 31.8057C33.4918 32.1402 33.8815 32.5305 34.6054 33.1996Z" fill="#AD974F"/>
<path d="M19.6267 88.2838C18.346 87.0573 17.0096 85.8864 15.7288 84.6041C14.3924 83.2103 14.2811 81.7607 15.5061 80.6456C16.6198 79.5863 18.0675 79.6421 19.3483 80.9244C22.1325 83.7121 24.861 86.5555 27.5895 89.3989C28.9259 90.7927 28.9259 92.0193 27.5895 93.4131C24.7496 96.3123 21.9097 99.1557 19.0142 101.999C17.7334 103.226 16.1743 103.226 15.172 102.111C14.114 100.996 14.114 99.6018 15.339 98.3752C16.6198 97.0371 18.0119 95.8105 19.6824 94.1937C18.7914 94.1379 18.2903 94.0822 17.8448 94.0822C12.9446 94.0822 8.10017 94.0822 3.20001 94.0822C1.80792 94.0822 0.582875 93.8034 0.137406 92.2423C-0.419431 90.291 0.749926 88.7856 3.03296 88.7856C7.87744 88.7299 12.6662 88.7856 17.5107 88.7856C18.1232 88.7856 18.7358 88.7856 19.3483 88.7856C19.4596 88.6184 19.571 88.4511 19.6267 88.2838Z" fill="#AD974F"/>
<path d="M126.762 32.9208C129.602 30.0774 132.442 27.234 135.338 24.3348C136.563 23.1082 137.788 21.8259 139.013 20.6551C140.294 19.4285 141.797 19.317 142.911 20.432C143.969 21.4914 143.913 23.0525 142.688 24.279C138.846 28.1818 135.004 32.0287 131.161 35.8757C130.939 36.0987 130.716 36.3775 130.271 36.935C132.219 36.935 133.89 36.935 135.56 36.935C138.011 36.935 139.069 37.7713 139.013 39.5554C138.957 41.228 137.844 42.1201 135.56 42.1201C131.774 42.1201 128.043 42.1201 124.257 42.1201C122.085 42.1201 121.25 41.3395 121.25 39.2209C121.194 35.2067 121.194 31.2482 121.25 27.234C121.25 25.3383 122.196 24.3905 123.811 24.3348C125.482 24.3348 126.428 25.3383 126.428 27.3455C126.428 29.1296 126.428 30.9137 126.428 32.6978C126.54 32.8093 126.651 32.865 126.762 32.9208Z" fill="#AD974F"/>
<path d="M78.0386 18.8152C78.0386 13.5186 78.0386 8.22207 78.0386 2.98125C78.0386 0.751121 79.4307 -0.419699 81.3239 0.137835C82.7717 0.528108 83.2172 1.58742 83.2172 2.9255C83.2172 7.99905 83.2172 13.0726 83.2172 18.1462C83.2172 18.4807 83.2172 18.8152 83.2172 19.4285C83.7183 19.0382 84.0524 18.8152 84.3309 18.5364C85.5002 17.4214 86.6139 16.1948 87.8389 15.1355C88.9526 14.1319 90.3447 14.2434 91.347 15.247C92.3493 16.2505 92.5164 17.7001 91.5141 18.7594C88.5071 21.8816 85.4445 24.9481 82.3263 27.9587C81.2126 29.0181 79.8762 28.9066 78.8182 27.8472C75.7556 24.7808 72.7487 21.6586 69.7974 18.5364C68.7951 17.4771 68.9622 16.0275 69.9645 15.024C70.9668 14.0204 72.3589 13.9089 73.4169 14.9125C74.8646 16.3063 76.0897 17.8674 77.4261 19.3727C77.6488 19.1497 77.8159 18.9825 78.0386 18.8152Z" fill="#AD974F"/>
<path d="M120.135 60.9647C107.105 65.9267 93.7414 66.8188 80.266 66.763C66.8462 66.7073 53.4821 65.9267 40.5635 61.0204C40.5635 66.5958 40.6192 72.0038 40.5078 77.4119C40.5078 78.8615 40.9533 79.8651 42.234 80.3111C45.4637 81.3704 48.6933 82.7085 51.9787 83.3775C70.5213 87.0015 89.1753 86.9457 107.774 83.6563C111.337 83.043 114.734 81.6492 118.187 80.4226C118.966 80.1438 119.968 79.1403 119.968 78.4712C120.247 72.6171 120.135 66.8745 120.135 60.9647ZM46.5216 78.0252C45.6864 78.0252 45.0739 77.3562 45.0739 76.5756C45.0739 75.7393 45.7421 75.126 46.5216 75.126C47.3569 75.126 47.9694 75.7951 47.9694 76.5756C47.9694 77.3562 47.3012 78.0252 46.5216 78.0252Z" fill="#AD974F"/>
<path d="M120.135 87.7821C120.135 87.2245 120.08 86.7228 120.024 86.1095C107.161 91.1273 93.7414 91.9078 80.3216 91.9078C66.9019 91.9078 53.4821 90.96 40.5635 86.1095C40.5635 86.7228 40.5635 87.1688 40.5635 87.6706C40.5635 92.6884 40.6192 97.7062 40.5078 102.668C40.5078 104.006 40.9533 104.898 42.1226 105.289C45.0739 106.348 48.0251 107.574 51.032 108.244C69.519 112.035 88.0617 112.035 106.604 108.857C110.502 108.188 114.233 106.738 118.019 105.567C119.467 105.121 120.135 104.062 120.08 102.334C120.08 97.4831 120.191 92.6326 120.135 87.7821ZM46.5217 103.337C45.6864 103.337 45.0739 102.668 45.0739 101.888C45.0739 101.051 45.7421 100.438 46.5217 100.438C47.3569 100.438 47.9694 101.107 47.9694 101.888C47.9694 102.724 47.3012 103.337 46.5217 103.337Z" fill="#AD974F"/>
<path d="M120.47 126.308C120.247 121.29 120.414 116.216 120.414 111.031C107.495 116.049 94.1312 116.718 80.6558 116.83C67.1246 116.941 53.7049 116.049 40.6192 111.31C40.6192 111.979 40.6192 112.481 40.6192 113.038C40.6192 117.722 40.7306 122.405 40.5635 127.032C40.4521 129.207 41.2874 130.378 43.1806 130.879C48.0251 132.217 52.8696 133.779 57.8255 134.559C71.3009 136.733 84.9434 136.733 98.4745 135.284C104.822 134.615 111.17 133.556 117.184 131.214C119.467 130.266 120.581 128.984 120.47 126.308ZM46.5217 128.147C45.6864 128.147 45.0739 127.478 45.0739 126.698C45.0739 125.862 45.7421 125.248 46.5217 125.248C47.3569 125.248 47.9694 125.917 47.9694 126.698C47.9694 127.534 47.3012 128.147 46.5217 128.147Z" fill="#AD974F"/>
</svg>
