<svg width="102" height="119" viewBox="0 0 102 119" fill="none" xmlns="http://www.w3.org/2000/svg">
<path d="M97.9038 49.6225C95.7819 52.0035 93.6177 54.2995 90.732 55.9152C86.1488 58.4663 81.311 59.1891 76.2186 58.2111C75.2002 57.9986 74.8182 57.9135 74.8607 59.2316C75.2002 70.6264 71.4657 80.4055 63.233 88.3564C62.4267 89.1217 62.257 89.7595 62.5965 90.8225C63.0633 92.098 63.3603 93.4586 63.6998 94.8191C64.0818 96.3498 63.6574 97.4128 62.0448 97.8379C52.7936 100.304 43.5424 102.77 34.2912 105.279C32.8484 105.661 31.6601 105.109 31.5753 103.748C31.2358 99.156 28.6047 97.4553 24.4459 96.2648C18.8018 94.6916 14.1338 91.2051 10.1447 86.9108C9.76282 86.4856 9.33845 86.1455 8.91408 85.7628C4.62798 80.2355 1.48766 74.1979 0.469185 67.225C-1.10097 56.723 1.27548 47.2415 7.51367 38.6954C8.31997 37.5899 9.1687 36.5695 10.0174 35.5065C10.3145 35.2514 10.6115 35.0388 10.8662 34.7837C21.3905 24.6644 33.6971 21.348 47.7861 25.0896C52.2844 26.2801 56.3158 28.5336 60.22 31.2972C62.3419 24.792 66.6704 20.4977 72.5266 17.649C77.4069 15.9908 82.2871 15.6506 87.2522 17.3513C99.771 21.6882 105.288 35.9742 98.8798 47.6242C98.5403 48.2619 98.2433 48.9422 97.9038 49.6225ZM43.8395 98.4332C46.0462 98.0505 48.168 97.4128 50.2474 96.775C51.2659 96.4774 52.2844 96.2222 53.3453 95.9246C54.7457 95.5845 56.1037 95.1593 57.5465 94.9042C59.0742 94.6491 59.7956 94.0538 58.9894 92.4381C57.5041 89.3343 58.1406 86.7832 61.0688 84.8699C61.2809 84.7424 61.4507 84.5298 61.6204 84.3597C68.6649 76.749 71.6355 67.7352 70.8292 57.4458C70.7443 56.638 70.4897 56.0002 69.6834 55.4475C62.8935 51.1957 59.4562 44.988 59.4137 36.9521C59.4137 35.9317 59.0318 35.379 58.3104 34.7837C43.3727 22.7511 20.5842 26.11 9.84769 41.9693C0.596495 55.6175 2.08178 73.0074 13.5821 84.7849C18.4199 89.717 24.2762 92.7783 31.0236 94.1389C32.2967 94.394 33.1879 94.9042 33.6122 96.2648C34.1215 97.8379 33.782 100.219 35.2673 100.729C36.5828 101.197 38.45 100.049 40.105 99.5812C40.4021 99.4961 40.6991 99.326 40.9538 99.241C41.9298 99.0709 42.9059 98.8584 43.8395 98.4332ZM80.5047 54.6396C89.9681 54.6396 97.6916 46.8588 97.6492 37.3348C97.6067 27.8533 89.8408 20.1575 80.335 20.2C70.9565 20.2426 63.2755 27.9808 63.2755 37.4198C63.2755 46.9014 71.0414 54.6396 80.5047 54.6396Z" fill="#231F20"/>
<path d="M34.0788 107.362C34.7154 106.809 35.4792 106.512 36.2431 106.299C44.5182 104.088 52.7934 101.877 61.0686 99.6662C62.5114 99.2836 63.7845 99.2836 64.2089 100.984C64.5908 102.6 63.3601 103.153 62.087 103.493C55.5093 105.279 48.9317 107.022 42.3115 108.808C42.0145 108.893 41.7599 109.02 41.4628 109.148C40.02 109.488 38.5771 109.828 37.1343 110.168C34.5881 110.806 33.6969 109.998 34.0788 107.362Z" fill="#231F20"/>
<path d="M42.6511 110.296C48.465 108.765 54.2364 107.234 60.0502 105.704C61.0687 105.406 62.0447 105.279 62.8086 106.171C63.5724 107.022 63.3178 107.915 62.8086 108.765C60.0077 110.083 56.9947 110.551 54.0666 111.359C49.6956 112.634 45.2822 113.697 40.8688 114.888C39.5108 115.27 38.2377 115.143 37.8558 113.612C37.4739 112.039 38.5772 111.401 39.9352 111.061C40.8688 110.848 41.76 110.551 42.6511 110.296Z" fill="#231F20"/>
<path d="M45.8762 5.70142C45.2821 7.69976 44.7304 9.74063 44.1363 11.739C43.7544 13.1421 43.033 14.3326 41.3779 13.9499C39.638 13.5247 39.3834 12.2492 39.8502 10.6335C40.2321 9.27293 40.4868 7.91235 40.7838 6.55178C41.2506 5.02113 41.675 3.49048 42.1418 1.95983C42.5662 0.599257 43.3724 -0.293622 44.9426 0.0890405C46.4279 0.471703 46.8098 1.57717 46.4279 3.02278C46.2157 3.91566 46.046 4.80854 45.8762 5.70142Z" fill="#231F20"/>
<path d="M25.0823 11.6539C24.8701 14.4176 23.9365 15.0554 21.3479 14.1625C19.7777 10.676 19.1412 6.93442 18.2076 3.23536C17.8681 2.00234 18.4198 0.939385 19.6929 0.599241C21.0933 0.216579 22.0269 0.981903 22.4088 2.25744C23.3849 5.44629 24.1911 8.55011 25.0823 11.6539Z" fill="#231F20"/>
<path d="M4.88311 18.3293C5.68941 18.3718 6.19865 18.7544 6.66545 19.2221C8.53266 21.0929 10.3999 22.9637 12.2671 24.8345C13.2007 25.7699 13.7099 26.8329 12.6066 27.9383C11.5457 29.0013 10.4423 28.5761 9.50871 27.5982C7.59906 25.6849 5.68941 23.7716 3.77976 21.8583C3.05833 21.178 2.84615 20.3276 3.22808 19.4347C3.52514 18.7119 4.20412 18.3718 4.88311 18.3293Z" fill="#231F20"/>
<path d="M49.1434 118.459C47.7429 118.417 47.0215 117.991 46.8093 117.014C46.5972 116.078 46.8942 115.185 47.8278 114.845C50.2467 113.995 52.6656 113.272 55.2118 112.889C56.1454 112.719 56.8668 113.357 57.1215 114.335C57.3761 115.313 57.0366 116.163 56.103 116.461C53.6841 117.226 51.2228 117.864 49.1434 118.459Z" fill="#231F20"/>
<path d="M40.9117 99.1985C39.1718 94.0113 37.4319 88.8666 35.7345 83.6794C35.2677 82.2338 34.6736 81.5961 33.0185 81.6386C29.9631 81.7236 27.035 81.0433 24.4463 79.3001C22.1123 77.7269 20.5846 75.5585 20.9241 72.6673C21.2211 69.8611 22.7064 67.6927 25.4224 66.6722C28.3505 65.5668 31.7879 66.8423 33.4005 69.606C34.7584 71.9445 35.7769 74.453 36.6681 77.0041C37.05 78.1521 37.5593 78.4497 38.7475 78.1096C40.6996 77.5143 42.6941 76.9616 44.6886 76.4939C45.9617 76.1963 46.1315 75.516 45.9193 74.283C45.4949 71.8594 45.1979 69.4359 45.0705 67.0124C44.9008 64.0361 46.2588 61.8252 48.9323 60.4646C51.5634 59.1891 53.9822 59.7843 56.1041 61.485C58.4805 63.3984 58.9898 65.992 58.2259 68.7981C57.165 72.5397 54.4066 74.9207 51.2239 76.7915C50.0781 77.4718 49.7386 78.1096 50.0356 79.4702C51.2239 84.9125 52.2423 90.3973 53.3457 95.8821C52.3272 96.1797 51.3087 96.4348 50.2478 96.7325C49.1445 91.2902 48.0411 85.8053 46.9802 80.3205C46.768 79.2576 46.2588 79.13 45.41 79.5127C43.7126 80.3205 41.9302 80.8732 40.063 80.9583C38.705 81.0433 38.3231 81.5535 38.8748 82.9992C40.742 88.0588 42.397 93.161 43.8823 98.3482C42.9063 98.8584 41.9302 99.071 40.9117 99.1985ZM51.6907 62.9732C50.0781 62.9732 48.423 64.2912 48.2957 65.9069C48.0835 68.4155 48.5079 70.8815 48.9323 73.3476C49.0172 73.8578 49.1445 74.453 49.8659 73.9853C52.4545 72.3697 54.7461 70.4563 55.3827 67.225C55.807 65.0991 53.8974 63.0157 51.6907 62.9732ZM32.3395 78.4497C33.8673 78.6198 33.9946 78.5348 33.1458 76.6215C32.382 74.8357 31.5332 73.0925 30.7269 71.3492C30.2601 70.3713 29.4538 69.8186 28.4354 69.606C26.7803 69.2658 25.4648 69.8611 24.6161 71.3067C23.7673 72.8373 23.8946 74.368 25.0829 75.6435C26.9076 77.6419 29.3265 78.1946 32.3395 78.4497Z" fill="#231F20"/>
<path d="M80.5891 47.7092C75.4967 47.6242 71.5077 45.0306 67.943 41.4591C67.8157 41.3315 67.6884 41.1614 67.5611 41.0339C64.5905 37.7175 63.7418 37.845 67.6459 33.5082C70.5741 30.2768 74.0114 27.8108 78.4673 27.258C84.366 26.5352 88.8218 29.3839 92.8109 33.2531C93.0231 33.4657 93.2353 33.7208 93.4474 33.9334C96.5878 37.4199 96.6302 37.7175 93.405 41.1189C90.0101 44.8605 85.9786 47.4966 80.5891 47.7092ZM86.3605 41.7142C88.4399 41.204 89.5433 39.4182 90.9861 38.0576C91.2407 37.8025 91.3256 37.4624 91.071 37.2073C89.6706 35.7616 88.4823 33.9759 86.3605 33.4232C84.5357 30.9571 78.0005 29.8942 74.648 32.9555C72.6535 33.5932 71.5077 35.294 70.1073 36.6545C69.5556 37.1647 69.7678 37.6324 70.2346 38.1001C71.5501 39.4607 72.8657 40.8638 74.648 41.7142C75.624 42.6496 76.8971 43.1598 78.1278 43.3724C81.0559 43.8826 83.9416 43.9676 86.3605 41.7142Z" fill="#231F20"/>
<path d="M74.6478 32.998C78.0003 29.9367 84.5355 30.9996 86.3603 33.4657C88.1851 36.2293 87.7607 38.9505 86.3603 41.7142C83.9838 44.0101 81.0557 43.8826 78.1276 43.3724C76.8545 43.1598 75.6238 42.6921 74.6478 41.7142C72.9503 38.8229 73.1201 35.8892 74.6478 32.998ZM80.6738 33.4231C80.8011 36.5695 80.1645 37.6749 77.9154 37.5899C75.8784 37.5049 76.3452 38.3977 76.9394 39.4607C77.873 41.1614 79.9524 41.9693 81.7347 41.289C83.6019 40.6087 84.6204 39.2056 84.5355 37.1647C84.4506 35.0813 83.22 33.8908 80.6738 33.4231ZM77.9578 33.7633C77.2788 33.8908 76.8545 34.2735 76.8969 35.0388C76.9394 35.7191 77.4486 36.0593 78.0427 36.0593C78.7641 36.0593 79.2309 35.549 79.1461 34.7837C79.0612 34.1885 78.6793 33.7633 77.9578 33.7633Z" fill="#231F20"/>
</svg>
