<svg width="127" height="128" viewBox="0 0 127 128" fill="none" xmlns="http://www.w3.org/2000/svg">
<path d="M80.8956 38.6101C80.602 39.0991 80.4552 39.4903 80.2105 39.8326C78.987 41.593 77.7635 43.3534 76.589 45.1628C76.3443 45.5051 76.3443 46.1897 76.4911 46.5809C77.421 48.977 78.4976 51.2753 79.4274 53.6715C79.6721 54.3072 79.9658 54.6006 80.602 54.7473C82.7063 55.0896 84.8107 55.5786 86.964 55.872C88.1385 56.0676 88.6279 56.6055 88.6279 57.828C88.579 61.9357 88.579 65.9944 88.6279 70.1021C88.6279 71.3735 88.0406 71.9114 86.8661 72.107C84.8107 72.4493 82.7063 72.8895 80.6509 73.2318C80.0147 73.3296 79.6721 73.623 79.4274 74.2587C78.5465 76.6059 77.5188 78.9531 76.4911 81.2515C76.1975 81.8872 76.1486 82.3273 76.589 82.963C77.8614 84.7234 79.0359 86.4838 80.2594 88.2932C81.0424 89.4668 80.9935 90.2003 79.9658 91.1783C77.0294 94.0635 74.0442 96.9486 71.1079 99.8826C70.3249 100.616 69.6887 100.567 68.8567 100.029C67.046 98.7579 65.1863 97.4865 63.3266 96.264C62.9841 96.0195 62.2989 96.0195 61.9074 96.2151C59.5583 97.1442 57.2582 98.1711 54.9092 99.1002C54.273 99.3447 53.8815 99.5892 53.7836 100.372C53.441 102.523 52.9516 104.675 52.6091 106.827C52.4133 107.902 51.826 108.342 50.7983 108.342C46.5896 108.342 42.3809 108.342 38.1232 108.342C36.8997 108.342 36.4104 107.609 36.2146 106.582C35.8231 104.577 35.4316 102.523 35.138 100.469C35.0401 99.687 34.6486 99.3447 33.9634 99.1002C31.6633 98.22 29.3632 97.242 27.112 96.2151C26.4758 95.9217 25.9864 95.8728 25.3992 96.3129C23.6374 97.5843 21.8266 98.7579 20.1138 99.9804C19.184 100.665 18.4988 100.567 17.6669 99.7848C14.6327 96.8019 11.5985 93.8189 8.51533 90.836C7.73231 90.1025 7.83019 89.369 8.36851 88.5866C9.59198 86.7772 10.8154 84.9679 12.0878 83.1586C12.4794 82.6207 12.5283 82.2295 12.2347 81.5938C11.158 79.2465 10.1792 76.8993 9.24941 74.5032C8.95578 73.7697 8.51533 73.5741 7.87912 73.4763C5.8237 73.134 3.81722 72.6938 1.76179 72.4004C0.538325 72.2048 0 71.6669 0 70.3955C0.0489387 66.2879 0 62.1313 0 58.0236C0 56.6055 0.440448 56.0676 1.85967 55.8231C3.86615 55.4319 5.92158 55.0896 7.977 54.7473C8.76002 54.6006 9.15153 54.2583 9.44516 53.4759C10.3261 51.1775 11.3048 48.8792 12.3325 46.6298C12.6262 45.9941 12.6262 45.6029 12.2347 45.065C11.0112 43.4023 9.88561 41.6908 8.71108 39.9793C7.73231 38.5123 7.73231 38.2678 8.95578 37.0941C11.7453 34.3068 14.5837 31.4706 17.3732 28.6832C18.5967 27.4607 18.7924 27.4607 20.2606 28.4387C21.9245 29.5634 23.6374 30.6881 25.2523 31.9107C25.8886 32.3997 26.3779 32.3019 27.0631 32.0085C29.2653 31.0305 31.4676 30.0524 33.6698 29.2211C34.5507 28.8788 34.9422 28.4876 35.0401 27.5585C35.3337 25.4558 35.8231 23.4019 36.1657 21.3481C36.3614 20.3212 36.9487 19.93 37.8785 19.93C42.1362 19.93 46.3938 19.93 50.6515 19.93C51.7282 19.93 52.2665 20.4679 52.4133 21.4948C52.7559 23.6953 53.0495 25.8959 53.441 28.0964C53.5389 28.5365 54.0283 29.0744 54.4687 29.27C56.7688 30.2969 59.1179 31.2261 61.418 32.253C62.1032 32.5464 62.5436 32.5464 63.1309 32.1063C64.8437 30.8837 66.6055 29.7101 68.3184 28.4876C69.2971 27.803 70.0312 27.8519 70.9121 28.6832C73.9463 31.6662 76.9805 34.6491 80.0147 37.632C80.5041 37.8276 80.6509 38.2678 80.8956 38.6101ZM71.3526 64.1362C71.3526 49.3193 59.2158 37.1919 44.3874 37.1919C29.7058 37.1919 17.4222 49.4171 17.4711 64.0873C17.52 77.9751 28.3844 90.9827 44.5342 91.0316C59.2158 91.0316 71.3526 78.7575 71.3526 64.1362Z" fill="#AD974F"/>
<path d="M120.34 86.8262C119.802 87.9509 119.361 88.9289 118.823 89.9069C118.48 90.5426 118.578 90.9827 118.872 91.6184C119.9 93.8679 121.368 94.9926 123.961 94.6503C124.989 94.5036 125.625 95.0904 125.772 96.1662C126.017 98.2689 126.311 100.323 126.653 102.425C126.849 103.599 126.457 104.577 125.283 104.724C122.493 105.066 121.759 106.973 121.466 109.32C121.417 109.663 121.612 110.005 121.71 110.298C121.759 110.396 121.857 110.494 121.955 110.592C124.598 113.428 124.744 112.939 122.249 116.264C121.368 117.438 120.438 118.612 119.606 119.785C119.068 120.568 118.285 120.91 117.55 120.323C115.299 118.514 113.293 119.101 111.335 120.763C111.042 121.008 110.748 121.448 110.699 121.839C110.552 122.768 110.601 123.697 110.552 124.626C110.503 125.458 110.063 125.996 109.133 126.093C107.029 126.338 104.973 126.68 102.869 127.023C101.743 127.218 100.96 126.827 100.667 125.653C100.667 125.604 100.618 125.556 100.618 125.556C99.4432 122.475 99.4432 122.426 96.1153 121.79C95.7728 121.741 95.2834 121.888 94.9898 122.084C94.2557 122.67 93.5705 123.306 92.9343 123.991C92.2981 124.675 91.613 124.626 90.8789 124.137C89.0682 122.768 87.2575 121.399 85.3978 120.03C84.6637 119.492 84.4679 118.758 85.0063 118.074C86.6212 115.971 86.4255 113.966 84.7126 112.059C84.3701 111.717 83.9296 111.374 83.4402 111.277C82.5104 111.13 81.5806 111.13 80.6507 111.081C79.7209 111.032 79.2804 110.592 79.1336 109.712C78.84 107.658 78.5953 105.604 78.2527 103.599C78.057 102.377 78.4485 101.447 79.7209 101.203C81.8742 100.812 82.9509 99.7359 83.1955 97.4376C83.3424 96.2151 83.3913 95.3838 82.4125 94.6014C82.07 94.308 81.7763 93.9168 81.4337 93.5744C80.6997 92.8898 80.6997 92.1074 81.238 91.325C82.6083 89.5157 83.9786 87.6575 85.3488 85.8481C85.8382 85.1635 86.4744 85.0168 87.2575 85.3591C87.3553 85.408 87.4043 85.408 87.5021 85.4569C89.6554 87.2663 91.613 86.6306 93.5216 85.0657C93.8642 84.7723 94.1578 84.2833 94.2067 83.8921C94.3536 82.963 94.3046 82.0339 94.3536 81.1048C94.4025 80.2735 94.8429 79.7355 95.7728 79.6377C97.9261 79.3932 100.128 79.0509 102.282 78.7086C103.26 78.5619 104.141 78.8553 104.288 79.7845C104.729 82.4251 106.392 83.5009 108.79 83.6476C109.28 83.6965 109.818 83.5498 110.21 83.2564C110.846 82.8163 111.335 82.2784 111.874 81.7405C112.608 81.007 113.342 81.0559 114.125 81.6427C115.838 82.963 117.599 84.3322 119.312 85.7014C119.851 85.9948 120.046 86.435 120.34 86.8262ZM102.575 114.651C109.084 114.651 114.565 109.174 114.516 102.719C114.516 96.1662 109.182 90.7871 102.624 90.7871C96.2132 90.7871 90.6832 96.1662 90.6832 102.572C90.6342 109.174 96.0175 114.651 102.575 114.651Z" fill="#AD974F"/>
<path d="M118.382 12.2526C118.676 12.6927 119.116 13.0839 119.214 13.524C119.899 15.7734 121.612 16.1646 123.668 16.1646C125.381 16.1646 125.478 16.4091 125.723 18.0229C125.968 19.93 126.261 21.8371 126.555 23.7932C126.751 25.0157 126.261 25.847 125.087 25.9937C122.934 26.2871 121.906 27.2651 121.612 29.5634C121.465 30.8349 121.465 31.6662 122.493 32.4486C122.787 32.6442 123.031 32.9865 123.325 33.231C124.353 34.2579 124.402 34.7958 123.521 35.9694C122.248 37.681 120.976 39.3436 119.704 41.0062C119.116 41.8375 118.284 42.1309 117.55 41.4952C115.299 39.5881 113.342 40.5661 111.433 41.9842C111.139 42.1798 110.944 42.6199 110.846 42.9622C110.748 43.5001 110.797 44.038 110.748 44.576C110.601 47.021 110.454 47.1677 108.056 47.51C106.392 47.7545 104.728 47.999 103.064 48.2435C101.939 48.4391 101.009 48.1457 100.862 46.9721C100.52 44.1847 98.66 43.3045 96.2131 43.06C95.8705 43.0111 95.3811 43.1578 95.0875 43.3534C94.4024 43.8424 93.7661 44.4293 93.2278 45.065C92.4937 45.8963 91.7597 45.8963 90.9277 45.2606C89.1659 43.9402 87.4531 42.6199 85.6913 41.2996C84.9082 40.7128 84.6636 39.9793 85.2508 39.2458C86.8169 37.2409 86.6211 35.3826 85.104 33.4266C84.6146 32.7909 84.2231 32.3997 83.4401 32.3997C82.706 32.3997 81.923 32.3508 81.14 32.3019C80.1612 32.253 79.6229 31.764 79.4761 30.786C79.1824 28.6343 78.8888 26.5316 78.5462 24.4289C78.3994 23.4019 78.742 22.5217 79.7208 22.3261C82.3145 21.886 83.538 20.419 83.6358 17.9251C83.6358 17.4361 83.5869 16.8493 83.2933 16.5069C82.8039 15.7734 82.1187 15.1866 81.4825 14.5509C80.8463 13.9152 80.8463 13.2795 81.3357 12.6438C82.706 10.7856 84.1252 8.92734 85.4955 7.06911C85.9849 6.3845 86.6211 6.2378 87.4041 6.62901C87.502 6.67791 87.5509 6.67791 87.6488 6.77571C89.6064 8.24273 91.466 8.24273 93.4236 6.67791C94.1087 6.14 94.5492 5.69989 94.5492 4.81968C94.696 0.418618 94.4023 1.34773 98.3174 0.61422C99.6388 0.369717 100.96 0.223015 102.33 0.0274119C103.456 -0.11929 104.141 0.320816 104.533 1.39663C105.707 4.62408 105.756 4.62408 109.084 5.21089C109.427 5.25979 109.916 5.11309 110.161 4.86858C110.797 4.37957 111.384 3.84167 111.922 3.25486C112.656 2.52135 113.439 2.52135 114.174 3.05926C116.033 4.37957 117.844 5.7977 119.655 7.16691C120.438 7.75372 120.536 8.43833 120.046 9.26965C119.508 10.2477 118.97 11.2257 118.382 12.2526ZM90.7319 24.3311C90.683 30.7371 96.0663 36.2139 102.477 36.2628C109.035 36.3606 114.565 30.9327 114.614 24.4289C114.663 17.8762 109.329 12.3993 102.869 12.3504C95.9194 12.3015 90.7809 17.3872 90.7319 24.3311Z" fill="#AD974F"/>
<path d="M44.3387 64.0873C38.515 64.0873 33.6211 59.2462 33.6211 53.3781C33.6211 47.5589 38.466 42.6688 44.3387 42.6688C50.2602 42.6688 55.1052 47.4611 55.0562 53.3292C55.0562 59.2951 50.3092 64.0384 44.3387 64.0873ZM44.4365 45.7007C40.1789 45.6518 36.7042 49.0748 36.7042 53.3292C36.7042 57.5346 40.081 60.9577 44.2897 61.0066C48.5963 61.0555 52.071 57.6813 52.071 53.427C52.071 49.1237 48.6942 45.7496 44.4365 45.7007Z" fill="#AD974F"/>
<path d="M55.9861 90.7871C46.7367 94.8948 37.9277 94.1124 29.5592 88.7333C26.1824 86.5816 27.8463 77.4861 28.14 74.601C28.4825 71.5202 30.8316 69.6131 34.0126 69.4664C37.4873 69.3197 40.9619 69.4175 44.4855 69.4175C44.4855 69.4175 44.4855 69.4175 44.4855 69.3686C47.6665 69.3686 50.7986 69.3197 53.9796 69.3686C58.4819 69.4664 60.6842 72.0581 61.2225 76.5081C61.7119 81.0559 59.999 88.9778 55.9861 90.7871Z" stroke="#AD974F" stroke-width="5.1729" stroke-miterlimit="10"/>
</svg>
