<svg width="123" height="134" viewBox="0 0 123 134" fill="none" xmlns="http://www.w3.org/2000/svg">
<path d="M45.7707 20.7162C49.5197 21.1576 52.9554 22.5835 56.2668 24.3944C62.7625 27.9601 68.3525 32.7188 73.4998 37.9649C80.9356 45.5866 87.3757 53.9521 92.394 63.3739C95.0949 68.3894 97.1989 73.6572 98.0303 79.3341C98.3907 82.0571 98.4017 84.7472 97.5347 87.3987C96.1305 91.5424 92.32 94.0927 87.6602 93.9622C83.3978 93.825 79.5334 92.2706 75.8849 90.2957C69.5952 86.8817 64.1677 82.2705 59.1349 77.2115C51.4848 69.5255 44.8386 61.0083 39.7494 51.4035C36.9777 46.2051 34.759 40.7501 33.9919 34.8589C33.6191 32.2669 33.6832 29.7161 34.5378 27.1958C35.886 23.179 39.478 20.6081 43.7092 20.6101C44.4123 20.6322 45.0676 20.694 45.7707 20.7162ZM44.0763 34.4867C44.1225 34.9319 44.0839 35.8099 44.1845 36.6129C44.6687 40.3615 46.1115 43.7596 47.781 47.0909C52.3953 56.1219 58.4793 64.0571 65.7502 71.0903C69.952 75.1451 74.3532 78.9543 79.6165 81.5663C81.679 82.5982 83.814 83.3284 86.1624 83.1971C86.9611 83.1401 87.5538 82.9314 87.5966 82.0097C87.6723 80.7385 87.9269 79.44 87.7801 78.1918C87.4542 74.6344 86.0864 71.3757 84.5315 68.2315C79.9773 59.0298 73.8183 50.9553 66.4724 43.7828C62.5163 39.9274 58.3607 36.3178 53.5425 33.6595C51.5715 32.5921 49.5527 31.5643 47.3164 31.4417C44.5995 31.2739 44.5162 31.2219 44.0763 34.4867Z" fill="#231F20"/>
<path d="M75.4214 94.7485C72.5694 94.612 69.7651 94.4359 66.9048 94.3867C59.4639 94.3027 52.568 96.386 46.5271 100.622C42.1866 103.651 38.0712 107.099 34.0036 110.506C31.0314 113.048 27.7763 113.446 24.2515 112.497C19.0476 111.125 14.93 108.048 11.4231 104.102C7.75794 99.9658 5.10743 95.3518 4.12852 89.8374C3.92977 88.6725 3.82663 87.4284 3.89412 86.2446C3.99525 83.3005 5.10784 80.8486 7.45033 78.9092C11.3185 75.7471 15.1825 72.6287 18.8091 69.2234C25.0502 63.3314 28.6501 56.0002 29.8899 47.5209C30.1791 45.388 30.4286 43.2074 30.6741 41.0705C30.6988 40.8083 30.7194 40.5898 30.8001 40.2007C31.3658 42.1496 31.8127 43.955 32.4863 45.6936C33.4831 48.2121 34.615 50.6993 35.6596 53.1782C35.8806 53.6399 35.9977 54.2681 35.865 54.7405C34.5747 60.4819 32.2729 65.7313 28.662 70.3724C28.2631 70.8638 28.1304 71.3362 28.2475 71.9644C28.8776 76.0353 30.7054 79.5579 33.1777 82.7885C35.5899 86.1898 38.5049 88.9331 42.2094 90.7811C42.9233 91.1569 43.6413 91.4891 44.3716 91.6902C44.8439 91.8228 45.4679 91.7494 45.9295 91.5284C51.2897 88.9036 56.9673 87.5872 62.8997 87.3087C63.2097 87.2938 63.5988 87.3746 63.8444 87.574C67.371 90.375 71.1094 92.7992 75.2112 94.6405C75.2945 94.6925 75.3341 94.7403 75.4214 94.7485Z" fill="#231F20"/>
<path d="M36.9163 113.734C37.2386 113.588 37.5527 113.53 37.7917 113.332C40.3691 111.238 42.9902 109.149 45.4884 106.96C47.7476 104.969 50.1439 104.798 52.8015 106.062C55.4154 107.322 58.0731 108.587 60.687 109.847C61.7422 110.343 62.7948 110.398 63.9158 110.195C65.2157 109.965 66.5716 109.608 67.8592 109.509C70.9272 109.225 73.115 110.798 74.8833 113.08C75.7893 114.224 75.4869 115.562 74.6767 116.676C74.1698 117.377 73.536 118.023 72.9063 118.625C70.0611 121.222 67.1721 123.815 64.3664 126.46C61.9951 128.706 59.3121 129.114 56.3363 127.952C53.3605 126.79 50.9435 124.843 48.5347 122.808C46.1614 120.865 43.84 118.839 41.4667 116.896C40.1593 115.803 38.6606 114.869 36.9163 113.734Z" fill="#231F20"/>
<path d="M104.294 29.2291C104.179 30.4525 103.716 31.1583 103.003 31.7082C99.12 34.5604 95.237 37.4125 91.354 40.2646C90.0278 41.2417 88.38 40.9542 87.347 39.7548C86.235 38.4597 86.2727 36.6559 87.58 35.4125C89.1344 33.8838 90.7722 32.4071 92.4099 30.9304C94.2471 29.2079 96.0844 27.4855 97.9611 25.8109C99.5511 24.3737 101.39 24.503 102.779 26.1327C103.523 27.1285 104.449 28.0534 104.294 29.2291Z" fill="#231F20"/>
<path d="M81.2914 10.486C81.0673 10.9939 80.8785 11.5932 80.5711 12.0492C77.8727 15.8946 75.2221 19.7004 72.4841 23.4981C71.3706 25.0242 69.6174 25.388 68.1583 24.5011C66.7429 23.6183 66.3751 21.9084 67.2388 20.2265C67.5627 19.5958 67.9344 18.9255 68.2583 18.2948C70.1292 14.8122 72.0396 11.3774 73.9105 7.89486C74.8739 6.09008 76.7269 5.60346 78.4357 6.64616C78.979 6.96185 79.514 7.36493 80.0094 7.7202C80.9962 8.47444 81.307 9.38539 81.2914 10.486Z" fill="#231F20"/>
<path d="M118.379 55.6395C118.06 57.1524 117.524 58.1599 116.252 58.5689C111.658 60.0757 107.112 61.5429 102.523 63.0059C100.84 63.5527 99.2377 62.7845 98.635 61.2289C98.0719 59.7211 98.7172 58.0186 100.329 57.2888C103.786 55.675 107.24 54.1049 110.694 52.5348C111.525 52.1283 112.401 51.7258 113.228 51.363C115.019 50.606 116.677 51.2472 117.434 53.0377C117.832 53.9569 118.091 54.9512 118.379 55.6395Z" fill="#231F20"/>
<path d="M68.9083 67.9934C64.0652 63.261 59.9746 58.0264 56.0834 52.546C58.3847 51.0437 60.8015 50.6543 63.3256 51.4652C67.3062 52.722 71.0366 57.57 71.3048 61.7391C71.432 64.1316 70.5353 66.163 68.9083 67.9934Z" fill="#231F20"/>
</svg>
