<svg width="114" height="115" viewBox="0 0 114 115" fill="none" xmlns="http://www.w3.org/2000/svg">
<path d="M77.6558 63.3189C68.5252 54.1906 59.4878 45.1088 50.6367 36.2599C59.2083 27.5042 67.873 18.6553 76.398 9.94611C85.5752 19.121 94.6126 28.1562 103.51 37.0517C95.0319 45.7143 86.3205 54.5166 77.6558 63.3189Z" fill="#231F20"/>
<path d="M111.85 114.782C111.105 114.782 110.592 114.782 110.08 114.782C87.0669 114.782 64.1007 114.782 41.0879 114.782C39.2245 114.782 39.2245 114.782 39.2245 112.826C39.2245 110.451 39.178 108.076 39.2711 105.747C39.3177 105.002 39.737 104.257 40.1562 103.605C40.5755 102.953 41.2743 102.533 41.7401 101.928C42.532 100.997 43.4637 100.344 44.7681 100.531C45.6066 100.671 45.9327 100.112 45.793 99.3665C45.3271 96.7584 47.3303 95.5009 48.7278 93.8708C48.9607 93.638 49.4732 93.5914 49.8458 93.5914C66.989 93.5914 84.0855 93.5914 101.229 93.5914C101.741 93.5914 102.3 93.964 102.719 94.29C103.139 94.5694 103.372 95.0352 103.744 95.3612C104.909 96.3858 105.514 97.5967 105.235 99.1802C105.049 100.205 105.514 100.624 106.493 100.484C107.611 100.345 108.263 100.95 109.101 101.602C111.291 103.279 112.083 105.328 111.803 108.076C111.664 110.265 111.85 112.454 111.85 114.782Z" fill="#231F20"/>
<path d="M0 103.325C0 100.065 1.07145 97.5035 3.30751 95.5475C20.7302 80.1783 38.1528 64.8558 55.5755 49.5332C56.2742 48.9278 56.6935 48.8346 57.3923 49.5332C59.5351 51.7687 61.7246 53.9577 63.9607 56.0535C64.8924 56.9383 64.6595 57.4506 63.9141 58.2424C56.1345 66.905 48.4014 75.5676 40.6684 84.2768C33.2148 92.6599 25.7147 101.043 18.2612 109.38C14.8605 113.152 10.3418 114.363 6.10259 112.267C2.32923 110.451 0.139754 107.377 0 103.325Z" fill="#231F20"/>
<path d="M45.4211 33.5121C41.7409 33.2792 39.6446 29.6465 41.6012 26.433C43.0919 23.9646 44.8155 21.5894 46.6323 19.3539C52.269 12.3679 58.558 6.12709 66.1978 1.37663C67.1295 0.817756 68.1544 0.352025 69.1792 0.119159C71.0892 -0.346572 72.906 0.58489 73.8377 2.35467C74.7228 4.0313 74.4899 5.89423 73.1389 7.24485C64.8469 15.5349 56.5548 23.7783 48.1696 32.0217C47.5174 32.7203 46.3528 32.9998 45.4211 33.5121Z" fill="#231F20"/>
<path d="M85.2965 72.8198C82.8275 72.68 81.5231 71.7486 80.7778 70.072C80.0324 68.3488 80.3585 66.7653 81.6163 65.4146C83.4797 63.5051 85.4362 61.6422 87.2996 59.7327C93.5886 53.4919 99.8309 47.2046 106.12 40.9638C108.309 38.7748 111.011 38.868 112.921 41.0569C114.132 42.5007 114.319 44.5033 113.014 46.506C111.43 48.9743 109.8 51.4427 107.937 53.7248C102.3 60.571 95.7315 66.4393 88.3245 71.2829C87.2531 72.1212 85.9953 72.4938 85.2965 72.8198Z" fill="#231F20"/>
</svg>
