<svg width="115" height="115" viewBox="0 0 115 115" fill="none" xmlns="http://www.w3.org/2000/svg">
<path d="M73.2113 34.9425C72.9455 35.385 72.8126 35.7391 72.5912 36.0489C71.4839 37.6421 70.3767 39.2353 69.3137 40.8727C69.0923 41.1825 69.0923 41.8021 69.2252 42.1561C70.0667 44.3246 71.041 46.4047 71.8826 48.5732C72.104 49.1485 72.3697 49.414 72.9455 49.5468C74.85 49.8566 76.7544 50.2991 78.7032 50.5647C79.7662 50.7417 80.2091 51.2285 80.2091 52.3349C80.1648 56.0524 80.1648 59.7256 80.2091 63.4431C80.2091 64.5937 79.6776 65.0805 78.6146 65.2575C76.7544 65.5673 74.85 65.9656 72.9898 66.2754C72.414 66.3639 72.104 66.6295 71.8826 67.2048C71.0853 69.329 70.1552 71.4533 69.2252 73.5333C68.9594 74.1086 68.9151 74.5069 69.3137 75.0823C70.4653 76.6755 71.5282 78.2687 72.6355 79.9061C73.3441 80.9683 73.2998 81.6321 72.3697 82.5172C69.7123 85.1283 67.0107 87.7394 64.3533 90.3947C63.6446 91.0585 63.0689 91.0143 62.3159 90.5275C60.6772 89.3768 58.9942 88.2262 57.3112 87.1198C57.0011 86.8985 56.3811 86.8985 56.0268 87.0755C53.9008 87.9164 51.8192 88.8458 49.6933 89.6866C49.1175 89.9079 48.7632 90.1292 48.6746 90.8373C48.3646 92.7845 47.9217 94.7317 47.6117 96.679C47.4345 97.6526 46.903 98.0509 45.9729 98.0509C42.164 98.0509 38.3551 98.0509 34.5019 98.0509C33.3946 98.0509 32.9517 97.3871 32.7745 96.4577C32.4202 94.6432 32.0659 92.7845 31.8002 90.9258C31.7116 90.2177 31.3573 89.9079 30.7372 89.6866C28.6556 88.89 26.574 88.0049 24.5366 87.0755C23.9608 86.81 23.518 86.7657 22.9865 87.164C21.392 88.3147 19.7533 89.3768 18.2032 90.4832C17.3617 91.1028 16.7416 91.0143 15.9887 90.3062C13.2427 87.6066 10.4967 84.907 7.70645 82.2074C6.99781 81.5436 7.08639 80.8797 7.57358 80.1717C8.68083 78.5342 9.78807 76.8968 10.9396 75.2593C11.2939 74.7725 11.3382 74.4184 11.0725 73.8431C10.0981 71.7188 9.21231 69.5946 8.3708 67.4261C8.10506 66.7622 7.70645 66.5852 7.13068 66.4967C5.2705 66.1869 3.45461 65.7886 1.59444 65.5231C0.487189 65.346 0 64.8592 0 63.7086C0.0442899 59.9911 0 56.2294 0 52.5119C0 51.2285 0.398609 50.7417 1.68302 50.5204C3.4989 50.1664 5.35908 49.8566 7.21926 49.5468C7.9279 49.414 8.28222 49.1043 8.54796 48.3962C9.34517 46.3162 10.231 44.2361 11.1611 42.2004C11.4268 41.6251 11.4268 41.271 11.0725 40.7842C9.96523 39.2795 8.94657 37.7306 7.88361 36.1816C6.99781 34.854 6.99781 34.6327 8.10506 33.5705C10.6296 31.048 13.1984 28.4812 15.7229 25.9586C16.8302 24.8522 17.0073 24.8522 18.336 25.7373C19.8419 26.7552 21.392 27.7731 22.8536 28.8795C23.4294 29.322 23.8723 29.2335 24.4923 28.968C26.4854 28.0829 28.4784 27.1977 30.4715 26.4454C31.2687 26.1356 31.623 25.7816 31.7116 24.9407C31.9773 23.0377 32.4202 21.179 32.7303 19.3202C32.9074 18.3909 33.4389 18.0368 34.2804 18.0368C38.1336 18.0368 41.9869 18.0368 45.8401 18.0368C46.8145 18.0368 47.3016 18.5236 47.4345 19.453C47.7445 21.4445 48.0103 23.436 48.3646 25.4275C48.4532 25.8258 48.8961 26.3126 49.2947 26.4897C51.3763 27.419 53.5022 28.2599 55.5839 29.1892C56.2039 29.4548 56.6025 29.4548 57.134 29.0565C58.6842 27.9501 60.2786 26.8879 61.8287 25.7816C62.7145 25.162 63.3789 25.2062 64.1761 25.9586C66.9221 28.6582 69.6681 31.3578 72.414 34.0574C72.8569 34.2344 72.9898 34.6327 73.2113 34.9425ZM64.5747 58.0439C64.5747 44.6344 53.5908 33.6591 40.171 33.6591C26.884 33.6591 15.7672 44.7229 15.8115 57.9996C15.8558 70.5682 25.6882 82.3402 40.3038 82.3844C53.5908 82.3844 64.5747 71.2763 64.5747 58.0439Z" fill="#231F20"/>
<path d="M108.908 78.5785C108.421 79.5963 108.022 80.4814 107.535 81.3666C107.225 81.9419 107.313 82.3402 107.579 82.9155C108.509 84.9513 109.838 85.9691 112.185 85.6593C113.115 85.5266 113.691 86.0576 113.824 87.0313C114.045 88.9343 114.311 90.793 114.621 92.696C114.798 93.7581 114.444 94.6432 113.381 94.776C110.857 95.0858 110.192 96.8118 109.927 98.936C109.882 99.2458 110.059 99.5556 110.148 99.8211C110.192 99.9096 110.281 99.9981 110.369 100.087C112.761 102.653 112.894 102.211 110.635 105.22C109.838 106.282 108.996 107.345 108.244 108.407C107.756 109.115 107.048 109.425 106.383 108.894C104.346 107.256 102.53 107.787 100.759 109.292C100.493 109.513 100.227 109.911 100.183 110.265C100.05 111.106 100.094 111.947 100.05 112.788C100.006 113.54 99.607 114.027 98.7655 114.116C96.861 114.337 95.0008 114.647 93.0964 114.957C92.0777 115.134 91.369 114.78 91.1033 113.717C91.1033 113.673 91.059 113.629 91.059 113.629C89.9961 110.841 89.9961 110.797 86.9843 110.221C86.6743 110.177 86.2314 110.31 85.9657 110.487C85.3013 111.018 84.6813 111.593 84.1055 112.213C83.5297 112.832 82.9097 112.788 82.2453 112.345C80.6066 111.106 78.9679 109.867 77.2849 108.628C76.6205 108.141 76.4433 107.477 76.9305 106.858C78.3921 104.955 78.2149 103.14 76.6648 101.414C76.3548 101.105 75.9562 100.795 75.5133 100.706C74.6717 100.573 73.8302 100.573 72.9887 100.529C72.1472 100.485 71.7486 100.087 71.6157 99.2901C71.35 97.4313 71.1286 95.5726 70.8185 93.7581C70.6414 92.6517 70.9957 91.8109 72.1472 91.5896C74.096 91.2355 75.0704 90.2619 75.2918 88.1819C75.4247 87.0755 75.469 86.3232 74.5832 85.6151C74.2731 85.3496 74.0074 84.9955 73.6974 84.6857C73.033 84.0661 73.033 83.3581 73.5202 82.65C74.7603 81.0125 76.0004 79.3308 77.2406 77.6933C77.6835 77.0738 78.2592 76.941 78.9679 77.2508C79.0565 77.295 79.1007 77.295 79.1893 77.3393C81.1381 78.9768 82.9097 78.4014 84.637 76.9853C84.947 76.7197 85.2127 76.2772 85.257 75.9231C85.3899 75.0823 85.3456 74.2414 85.3899 73.4006C85.4342 72.6482 85.8328 72.1614 86.6743 72.0729C88.6231 71.8516 90.6161 71.5418 92.5649 71.232C93.4507 71.0993 94.2479 71.3648 94.3808 72.2057C94.7794 74.5955 96.2852 75.5691 98.4554 75.7018C98.8983 75.7461 99.3855 75.6133 99.7398 75.3478C100.316 74.9495 100.759 74.4627 101.246 73.9759C101.91 73.312 102.574 73.3563 103.283 73.8874C104.833 75.0823 106.428 76.3214 107.978 77.5606C108.465 77.8261 108.642 78.2244 108.908 78.5785ZM92.8306 103.76C98.7212 103.76 103.682 98.8033 103.637 92.9615C103.637 87.0313 98.8098 82.1632 92.8749 82.1632C87.0729 82.1632 82.0682 87.0313 82.0682 92.8288C82.0239 98.8033 86.8958 103.76 92.8306 103.76Z" fill="#231F20"/>
<path d="M107.138 11.0887C107.404 11.487 107.802 11.841 107.891 12.2393C108.511 14.2751 110.061 14.6291 111.921 14.6291C113.472 14.6291 113.56 14.8504 113.782 16.3109C114.003 18.0368 114.269 19.7628 114.535 21.533C114.712 22.6394 114.269 23.3918 113.206 23.5245C111.257 23.7901 110.327 24.6752 110.061 26.7552C109.928 27.9058 109.928 28.6582 110.858 29.3663C111.124 29.5433 111.346 29.8531 111.611 30.0743C112.541 31.0037 112.586 31.4905 111.789 32.5527C110.637 34.1016 109.485 35.6063 108.334 37.111C107.802 37.8633 107.05 38.1289 106.385 37.5535C104.348 35.8276 102.576 36.7127 100.849 37.9961C100.583 38.1731 100.406 38.5714 100.317 38.8812C100.229 39.368 100.273 39.8548 100.229 40.3416C100.096 42.5544 99.9631 42.6872 97.7929 42.997C96.2871 43.2183 94.7812 43.4395 93.2753 43.6608C92.2567 43.8378 91.4152 43.5723 91.2823 42.5102C90.9723 39.9876 89.2893 39.191 87.0748 38.9697C86.7647 38.9255 86.3218 39.0582 86.0561 39.2352C85.436 39.6778 84.8603 40.2089 84.3731 40.7842C83.7087 41.5365 83.0444 41.5365 82.2915 40.9612C80.697 39.7663 79.1469 38.5714 77.5524 37.3765C76.8438 36.8454 76.6223 36.1816 77.1538 35.5178C78.5711 33.7033 78.3939 32.0216 77.0209 30.2514C76.5781 29.676 76.2237 29.322 75.5151 29.322C74.8507 29.322 74.1421 29.2777 73.4335 29.2335C72.5477 29.1892 72.0605 28.7467 71.9276 27.8616C71.6619 25.9143 71.3961 24.0113 71.0861 22.1083C70.9532 21.179 71.2633 20.3824 72.1491 20.2054C74.4964 19.8071 75.6037 18.4794 75.6923 16.2223C75.6923 15.7798 75.648 15.2487 75.3822 14.9389C74.9393 14.2751 74.3193 13.744 73.7435 13.1687C73.1677 12.5934 73.1677 12.0181 73.6106 11.4427C74.8507 9.76104 76.1352 8.07932 77.3753 6.39761C77.8182 5.77803 78.3939 5.64527 79.1026 5.99931C79.1912 6.04357 79.2354 6.04357 79.324 6.13208C81.0956 7.45974 82.7786 7.45975 84.5502 6.04357C85.1703 5.55676 85.5689 5.15846 85.5689 4.36186C85.7018 0.378853 85.436 1.21971 88.9792 0.555875C90.1751 0.334597 91.3709 0.20183 92.611 0.024808C93.6297 -0.107959 94.2497 0.290341 94.604 1.26396C95.667 4.18483 95.7113 4.18483 98.723 4.7159C99.033 4.76015 99.4759 4.62739 99.6974 4.40611C100.273 3.96355 100.805 3.47674 101.292 2.94568C101.956 2.28184 102.665 2.28184 103.329 2.76865C105.012 3.96355 106.651 5.24697 108.29 6.48612C108.998 7.01719 109.087 7.63677 108.644 8.38911C108.157 9.27422 107.67 10.1593 107.138 11.0887ZM82.1143 22.0198C82.07 27.8173 86.9419 32.7739 92.7439 32.8182C98.6787 32.9067 103.683 27.9943 103.728 22.1083C103.772 16.1781 98.9445 11.2215 93.0982 11.1772C86.809 11.133 82.1586 15.7355 82.1143 22.0198Z" fill="#231F20"/>
<path d="M40.1272 57.9996C34.8567 57.9996 30.4277 53.6183 30.4277 48.3077C30.4277 43.0412 34.8124 38.6157 40.1272 38.6157C45.4863 38.6157 49.871 42.9527 49.8267 48.2634C49.8267 53.6626 45.5306 57.9554 40.1272 57.9996ZM40.2158 41.3595C36.3626 41.3153 33.218 44.4132 33.218 48.2634C33.218 52.0694 36.274 55.1673 40.0829 55.2115C43.9805 55.2558 47.125 52.2022 47.125 48.3519C47.125 44.4574 44.069 41.4038 40.2158 41.3595Z" fill="#231F20"/>
<path d="M50.6671 82.1631C42.2963 85.8806 34.3241 85.1725 26.7505 80.3044C23.6945 78.3572 25.2004 70.1256 25.4661 67.5145C25.7762 64.7264 27.9021 63.0005 30.7809 62.8677C33.9255 62.7349 37.0701 62.8234 40.259 62.8234C40.259 62.8234 40.259 62.8234 40.259 62.7792C43.1378 62.7792 45.9724 62.7349 48.8512 62.7792C52.9259 62.8677 54.9189 65.2133 55.4061 69.2405C55.849 73.3563 54.2989 80.5257 50.6671 82.1631Z" stroke="#231F20" stroke-width="5.1729" stroke-miterlimit="10"/>
</svg>
