<svg width="142" height="118" viewBox="0 0 142 118" fill="none" xmlns="http://www.w3.org/2000/svg">
<path d="M35.5031 46.1128C36.7616 45.4854 37.9716 44.7614 39.2301 44.3271C45.0386 42.2036 51.1375 41.3831 57.2847 40.9005C67.4495 40.0801 77.5659 40.0318 87.6823 41.4796C92.1838 42.1071 96.6369 43.3136 101.09 44.4236C102.349 44.7132 103.462 45.5819 104.769 46.2576C103.559 47.995 102.01 48.6706 100.412 49.0085C95.9593 49.9737 91.4577 51.132 86.9078 51.5181C79.3084 52.1455 71.709 52.4833 64.1096 52.4351C56.0262 52.3868 47.9428 51.4698 40.1498 48.9602C38.5041 48.4293 37.0036 47.5606 35.4062 46.885C35.5031 46.6437 35.5031 46.3541 35.5031 46.1128Z" fill="#231F20"/>
<path d="M123.306 76.8555C124.08 76.8555 124.806 76.8555 125.581 76.8555C129.792 76.8555 134.003 76.8555 138.166 76.8555C140.005 76.8555 141.07 77.7725 141.022 79.2204C140.973 80.6682 140.054 81.3921 138.166 81.3921C133.713 81.3921 129.26 81.3921 124.806 81.3921C124.274 81.3921 123.79 81.3921 123.064 81.73C124.177 82.7917 125.291 83.8535 126.355 84.9152C127.565 86.17 127.662 87.3283 126.694 88.3418C125.726 89.3553 124.419 89.2588 123.209 88.1005C120.789 85.6874 118.369 83.2743 115.949 80.8613C114.738 79.6064 114.738 78.5447 115.949 77.2899C118.369 74.8285 120.837 72.3672 123.306 69.9541C124.419 68.8441 125.726 68.7958 126.646 69.7611C127.614 70.7263 127.565 71.9811 126.452 73.0911C125.387 74.2011 124.226 75.2629 123.112 76.3729C123.209 76.6142 123.258 76.7107 123.306 76.8555Z" fill="#231F20"/>
<path d="M30.0824 28.7385C30.0824 26.7598 30.0824 25.1672 30.0824 23.5745C30.1308 21.9819 30.9537 21.1132 32.3574 21.1132C33.7127 21.1132 34.5839 21.9336 34.5839 23.478C34.6323 27.0494 34.6323 30.5725 34.5839 34.1439C34.5839 35.833 33.8095 36.5087 32.1154 36.5087C28.5819 36.5569 25.0968 36.5569 21.5633 36.5087C19.966 36.5087 19.1432 35.6882 19.1916 34.1921C19.24 32.7925 19.966 32.0686 21.5633 32.0203C23.2091 31.9721 24.8548 32.0203 26.8394 32.0203C26.2585 31.3929 25.9197 31.0551 25.5809 30.7173C22.1442 27.2907 18.6591 23.8158 15.2225 20.3893C13.964 19.1344 13.8188 17.8314 14.8352 16.8179C15.9001 15.8044 17.1102 15.9009 18.4171 17.204C21.9022 20.6306 25.3388 24.1054 28.7755 27.532C29.1143 27.8216 29.4532 28.1594 30.0824 28.7385Z" fill="#231F20"/>
<path d="M17.0607 76.4212C15.9475 75.3594 14.7858 74.3459 13.6725 73.2359C12.5108 72.0293 12.414 70.7745 13.4789 69.8093C14.4469 68.8923 15.7054 68.9406 16.8187 70.0506C19.2389 72.4637 21.6107 74.925 23.9825 77.3864C25.1442 78.5929 25.1442 79.6547 23.9825 80.8612C21.5139 83.3709 19.0453 85.8322 16.5283 88.2936C15.415 89.3553 14.0597 89.3553 13.1884 88.3901C12.2688 87.4248 12.2688 86.2183 13.3337 85.1565C14.4469 83.9983 15.657 82.9365 17.1091 81.5369C16.3347 81.4886 15.8991 81.4404 15.5118 81.4404C11.2523 81.4404 7.04117 81.4404 2.78165 81.4404C1.57155 81.4404 0.506671 81.1991 0.119442 79.8477C-0.364596 78.1586 0.651882 76.8555 2.63643 76.8555C6.84756 76.8073 11.0103 76.8555 15.2214 76.8555C15.7538 76.8555 16.2863 76.8555 16.8187 76.8555C16.9155 76.7107 17.0123 76.5659 17.0607 76.4212Z" fill="#231F20"/>
<path d="M110.19 28.4972C112.658 26.0359 115.127 23.5745 117.644 21.0649C118.709 20.0031 119.774 18.8931 120.838 17.8796C121.952 16.8179 123.259 16.7213 124.227 17.6866C125.146 18.6036 125.098 19.9549 124.033 21.0166C120.693 24.395 117.353 27.725 114.013 31.0551C113.82 31.2481 113.626 31.4894 113.239 31.9721C114.933 31.9721 116.385 31.9721 117.837 31.9721C119.967 31.9721 120.887 32.696 120.838 34.2404C120.79 35.6882 119.822 36.4604 117.837 36.4604C114.546 36.4604 111.303 36.4604 108.011 36.4604C106.124 36.4604 105.398 35.7847 105.398 33.9508C105.349 30.4759 105.349 27.0494 105.398 23.5745C105.398 21.9336 106.22 21.1132 107.624 21.0649C109.076 21.0649 109.899 21.9336 109.899 23.671C109.899 25.2154 109.899 26.7598 109.899 28.3042C109.996 28.4007 110.093 28.4489 110.19 28.4972Z" fill="#231F20"/>
<path d="M67.837 16.287C67.837 11.7021 67.837 7.11727 67.837 2.58066C67.837 0.650193 69.0471 -0.363304 70.6928 0.119314C71.9513 0.457146 72.3385 1.37412 72.3385 2.5324C72.3385 6.92422 72.3385 11.316 72.3385 15.7079C72.3385 15.9974 72.3385 16.287 72.3385 16.8179C72.7742 16.4801 73.0646 16.287 73.3066 16.0457C74.3231 15.0805 75.2912 14.0187 76.3561 13.1017C77.3241 12.233 78.5342 12.3295 79.4055 13.1982C80.2768 14.067 80.422 15.3218 79.5507 16.2387C76.9369 18.9414 74.2747 21.5958 71.5641 24.2019C70.596 25.1189 69.4343 25.0224 68.5147 24.1054C65.8524 21.451 63.2387 18.7484 60.6733 16.0457C59.802 15.1287 59.9472 13.8739 60.8185 13.0052C61.6897 12.1365 62.8998 12.04 63.8195 12.9087C65.078 14.1152 66.1429 15.4666 67.3046 16.7696C67.4982 16.5766 67.6434 16.4318 67.837 16.287Z" fill="#231F20"/>
<path d="M104.43 52.7729C93.1037 57.0682 81.4868 57.8404 69.7731 57.7921C58.1078 57.7438 46.491 57.0682 35.2613 52.8211C35.2613 57.6473 35.3097 62.3287 35.2129 67.0101C35.2129 68.2649 35.6001 69.1336 36.7134 69.5197C39.5208 70.4367 42.3282 71.595 45.1841 72.1741C61.3025 75.3111 77.5177 75.2629 93.6846 72.4154C96.7824 71.8845 99.735 70.678 102.736 69.6162C103.414 69.3749 104.285 68.5062 104.285 67.9271C104.527 62.8596 104.43 57.8886 104.43 52.7729ZM40.4405 67.541C39.7144 67.541 39.182 66.9618 39.182 66.2862C39.182 65.5622 39.7628 65.0314 40.4405 65.0314C41.1665 65.0314 41.699 65.6105 41.699 66.2862C41.699 66.9618 41.1181 67.541 40.4405 67.541Z" fill="#231F20"/>
<path d="M104.43 75.9868C104.43 75.5042 104.382 75.0698 104.333 74.5389C93.1521 78.8825 81.4868 79.5582 69.8215 79.5582C58.1562 79.5582 46.491 78.7377 35.2613 74.5389C35.2613 75.0698 35.2613 75.4559 35.2613 75.8903C35.2613 80.2338 35.3097 84.5774 35.2129 88.8727C35.2129 90.031 35.6001 90.8031 36.6166 91.141C39.182 92.0579 41.7474 93.1197 44.3612 93.6988C60.4312 96.9806 76.5497 96.9806 92.6681 94.2297C96.0564 93.6506 99.2994 92.3958 102.591 91.3823C103.849 90.9962 104.43 90.0792 104.382 88.5831C104.382 84.3843 104.479 80.1856 104.43 75.9868ZM40.4405 89.4518C39.7144 89.4518 39.182 88.8727 39.182 88.197C39.182 87.4731 39.7628 86.9422 40.4405 86.9422C41.1665 86.9422 41.699 87.5213 41.699 88.197C41.699 88.9209 41.1181 89.4518 40.4405 89.4518Z" fill="#231F20"/>
<path d="M104.72 109.336C104.526 104.992 104.671 100.6 104.671 96.1119C93.4417 100.455 81.8248 101.035 70.1111 101.131C58.349 101.228 46.6837 100.455 35.3089 96.3532C35.3089 96.9324 35.3089 97.3667 35.3089 97.8494C35.3089 101.903 35.4057 105.957 35.2605 109.963C35.1637 111.845 35.8897 112.859 37.5354 113.293C41.7466 114.451 45.9577 115.803 50.2656 116.478C61.9793 118.361 73.8382 118.361 85.6003 117.106C91.1184 116.527 96.6364 115.61 101.864 113.583C103.849 112.762 104.817 111.652 104.72 109.336ZM40.4397 110.928C39.7136 110.928 39.1812 110.349 39.1812 109.673C39.1812 108.95 39.762 108.419 40.4397 108.419C41.1657 108.419 41.6982 108.998 41.6982 109.673C41.6982 110.397 41.1173 110.928 40.4397 110.928Z" fill="#231F20"/>
</svg>
