<svg width="111" height="102" viewBox="0 0 111 102" fill="none" xmlns="http://www.w3.org/2000/svg">
<path d="M46.2369 100.959C44.4189 100.911 42.6501 100.719 40.832 100.431C38.3261 100.046 35.8202 99.4698 33.4126 98.7009C24.47 95.8177 17.0014 90.8202 11.056 83.6123C5.15974 76.4524 1.7694 68.2834 0.786693 59.1533C0.688422 58.2883 0.639286 57.4234 0.541016 56.5104C0.541016 55.1649 0.541016 53.8674 0.541016 52.522C0.639286 51.609 0.688422 50.6479 0.786693 49.7349C1.72027 41.0853 4.86493 33.2527 10.2698 26.3331C14.0533 21.4797 18.672 17.4913 24.0769 14.3679C29.8749 11.1483 36.115 9.08202 42.7975 8.40928C49.3816 7.68848 55.8675 8.31317 62.2059 10.2353C69.2323 12.3977 75.3742 15.9536 80.73 20.9031C80.8283 20.9992 80.8774 21.0472 80.9757 21.1914C78.8137 23.0174 76.7009 24.7954 74.5389 26.5733C64.8593 18.2601 53.6564 14.8484 40.9303 17.0588C31.1032 18.7407 23.1433 23.6421 17.0505 31.3786C5.25801 46.3712 6.43726 67.7067 20.2934 81.4018C34.1988 95.0969 55.8183 96.3944 71.1486 85.2461C79.5507 79.0953 84.71 70.9263 86.4297 60.7871C88.1494 50.6479 85.8892 41.3737 80.0421 32.8202C82.1549 31.0423 84.3169 29.2162 86.4788 27.3902C89.82 31.9072 92.2768 36.8567 93.7509 42.1906C96.1094 50.5518 96.0602 58.9611 93.6526 67.3223C90.8519 76.9329 85.3487 84.8616 77.3397 91.0605C74.0967 93.5592 70.559 95.6255 66.8247 97.2593C62.6482 99.0373 58.1768 100.191 53.6073 100.719C51.1505 101.007 48.6937 101.056 46.2369 100.959Z" fill="#231F20"/>
<path d="M67.7098 32.3397C65.7443 34.0215 63.7789 35.6553 61.8135 37.3372C56.0155 33.1085 49.5788 31.715 42.5524 33.3969C37.2949 34.6462 33.0202 37.5775 29.8755 41.8542C23.4388 50.5998 24.5197 62.565 32.4305 70.2055C40.1939 77.7018 52.4286 78.5667 61.3222 72.1757C70.3139 65.6885 73.2621 53.483 67.3658 43.488C69.3312 41.8542 71.2966 40.1723 73.2621 38.5385C79.9445 47.9089 80.9272 64.343 69.0856 75.6355C57.0474 87.1201 38.0811 86.8318 26.3869 75.0108C14.9383 63.4781 15.1349 44.8815 27.0748 33.493C38.8181 22.2005 56.8017 22.8252 67.7098 32.3397Z" fill="#231F20"/>
<path d="M97.6826 0C97.83 0.96106 97.9774 1.87407 98.0757 2.73902C98.4688 5.47804 98.8619 8.21707 99.255 11.0041C99.3041 11.3405 99.4515 11.4847 99.7955 11.5808C103.235 12.6379 106.674 13.6951 110.114 14.7523C110.261 14.8003 110.409 14.8484 110.654 14.9445C109.868 15.4731 109.082 16.0017 108.345 16.4822C103.382 19.8459 98.4197 23.1616 93.457 26.5253C93.1622 26.7175 92.9656 26.7175 92.72 26.5733C91.5407 25.9486 90.3615 25.3239 89.1822 24.6993C88.74 24.459 88.2978 24.2668 87.8064 24.0746C87.7082 24.0265 87.5116 24.1226 87.4133 24.1707C84.5143 26.5733 81.5662 28.976 78.6672 31.3786C73.3606 35.7995 68.054 40.1723 62.7474 44.5932C58.2269 48.3413 53.6573 52.0895 49.1369 55.8857C48.4981 56.4142 47.7611 56.5584 46.9258 56.2701C46.1396 55.9818 45.6482 55.3571 45.55 54.5402C45.4517 53.8194 45.7465 53.1466 46.287 52.6661C48.6455 50.6959 51.0531 48.7258 53.4116 46.7556C58.7674 42.3347 64.074 37.9138 69.4298 33.493C74.4416 29.3604 79.4534 25.1798 84.4652 21.0472C84.7109 20.807 84.8092 20.6628 84.6618 20.3264C84.1213 18.7407 83.679 17.203 83.1386 15.6172C83.0403 15.377 83.0894 15.2328 83.2368 15.0406C87.9538 10.0911 92.6708 5.14167 97.3878 0.192212C97.4861 0.144159 97.5844 0.096106 97.6826 0Z" fill="#231F20"/>
<path d="M56.1632 41.9984C55.1313 42.8633 54.1486 43.6802 53.1659 44.4971C52.4289 45.1218 51.6427 45.7465 50.9057 46.4192C50.7091 46.6114 50.5126 46.6595 50.2178 46.6114C46.7783 45.7945 43.781 46.6114 41.5208 49.3024C39.2606 51.9453 38.9166 54.9246 40.3416 58.0961C41.8648 61.4118 45.4516 63.2858 49.2351 62.7573C52.7728 62.2767 55.7701 59.4416 56.3106 55.9337C56.458 55.0207 56.3106 54.0597 56.3106 53.0986C56.3106 52.9544 56.3106 52.7622 56.4088 52.6661C58.1777 51.1765 59.8974 49.6868 61.6663 48.1972C64.0248 52.3778 64.1722 60.1143 58.3251 65.4482C52.478 70.8302 43.3879 70.7821 37.4917 65.3521C31.6937 60.0663 31.1041 51.1284 36.165 45.1218C41.5208 38.8749 50.2669 38.2022 56.1632 41.9984Z" fill="#231F20"/>
</svg>
